<svg id="Layer_1" data-name="Layer 1" xmlns="http://www.w3.org/2000/svg" viewBox="0 0 134.12 135.9"><defs><style>.cls-1{fill:#6c6d71;}.cls-2{fill:#48474c;}.cls-3{fill:#929196;}.cls-4{fill:#333237;}.cls-5{fill:#b3b3b3;}.cls-6{fill:#333;}</style></defs><title>AsteroidIcon</title><path class="cls-1" d="M183.89,139.79a26.85,26.85,0,0,0-3.8,19.29s4,17.81-25.22,24.16a90.72,90.72,0,0,0-26.69,9.55,35.5,35.5,0,0,1-9.61,3,41.1,41.1,0,0,1-9.61-2,19.58,19.58,0,0,1-6.34-3.57c-1.61-1.32-3.81-3.19-6.39-5.56-1.19-1.09-2.44-2.26-3.75-3.53a150.2,150.2,0,0,1-13.81-15.26,98.69,98.69,0,0,1-12.48-20.11c-.49-1.1-1-2.21-1.4-3.33-.35-.89-.68-1.78-1-2.67s-.48-1.5-.71-2.25a51.26,51.26,0,0,1-1.92-9.67c-.09-1-.16-1.84-.19-2.71.61-12.31,6.42-18.07,8.6-19.78a22.25,22.25,0,0,0,3.11-3,42.75,42.75,0,0,0,6-9.44c.75-1.57,1.48-3.3,2.2-5.24,4.5-12.3,8.2-10,22.34-11.06,5.62-1.16,7.58-10,12.08-11.68,3.46-1.26,10.76-6,30.86-4,4.56.63,9.71,1.59,15.54,3,.35.06.7.15,1.05.24a.08.08,0,0,1,.07,0c.33.08.66.17,1,.28A42.49,42.49,0,0,1,170,66.86a34.44,34.44,0,0,1,7.13,4.28,29.28,29.28,0,0,1,5.2,5.25s0,0,0,0c3.35,10.12,2.23,19.95,3.43,22.67C188.14,104.41,196.62,120.92,183.89,139.79Z" transform="translate(-60.94 -60.05)"/><path class="cls-2" d="M188.8,144a24.6,24.6,0,0,0-3.49,17.65S189,178,162.23,183.77a83,83,0,0,0-24.44,8.72A39,39,0,0,1,109,193.86a19.58,19.58,0,0,1-6.34-3.57c-1.61-1.32-3.81-3.19-6.39-5.56,4.29-.49,13.83-3,23-15.42,12.41-16.69,9.31-30.07,26-36.08,8.35-3.11,12,7,19.4,6.21s11.64-20.17,10.09-28.9-4.42-24.25.31-27.16c2.53-1.56,6.79-2.22,10.18-2.5,5.67,10.84,4,22.92,5.31,25.89C192.67,111.62,200.44,126.74,188.8,144Z" transform="translate(-60.94 -60.05)"/><path class="cls-3" d="M163.79,64.58a79.67,79.67,0,0,0-21.56-1.31c-8,.61-15.24,1.27-21.72,6.4-3.58,2.83-6.33,7.06-11.83,15.52-7.16,11-5.9,11.56-8.73,13.37-6,3.88-11.61,1.28-20.56,7.18a35.76,35.76,0,0,0-3.11,2.34c-9.2,7.82-11.28,21.19-13.18,29.5a51.26,51.26,0,0,1-1.92-9.67c-1.62-16.32,5.52-23.5,7.94-25.42a20.41,20.41,0,0,0,2.95-2.77,45.69,45.69,0,0,0,7.73-13.9c4.26-11.64,7.76-9.5,21.14-10.47,5.33-1.1,7.18-9.5,11.44-11s14.75-8.73,50.43,0C163.14,64.38,163.47,64.47,163.79,64.58Z" transform="translate(-60.94 -60.05)"/><path class="cls-4" d="M132.42,101.69a2.31,2.31,0,0,1-.33.36c-1.82,1.58-6.27.48-8.8-.69-3.74-1.75-7.79-5.76-6.85-8.21a1.66,1.66,0,0,1,.25-.45c1.52-2.24,7.52-2.9,11.49-.35C131.72,94.6,134,99.58,132.42,101.69Z" transform="translate(-60.94 -60.05)"/><path class="cls-4" d="M163,93.88a.57.57,0,0,1-.12.21c-1.85,2.52-7.73,1.12-11-.4-4.42-2.06-9.2-6.79-8.26-9.74a.89.89,0,0,1,0-.14c1.17-3.1,9-4.22,14.13-1C162,85.49,164.68,91.23,163,93.88Z" transform="translate(-60.94 -60.05)"/><path class="cls-4" d="M155.48,127.3a.71.71,0,0,1-.16.15c-1.08,1-3.86.37-5.41-.36-2.27-1.07-4.73-3.5-4.17-5h0c.59-1.57,4.57-2.13,7.15-.49C155,123,156.44,126,155.48,127.3Z" transform="translate(-60.94 -60.05)"/><path class="cls-4" d="M105.33,139.34l-.09.1c-2.13,2.62-8.47,1.1-12-.55-4.94-2.31-10.3-7.61-9.06-10.86,1.31-3.41,9.93-4.64,15.53-1.07C104.38,130,107.4,136.53,105.33,139.34Z" transform="translate(-60.94 -60.05)"/><path class="cls-2" d="M98.57,173.53c-1.67.09-3.24,1.6-3,2.49s2.09,1.14,3.44.88c1-.18,2.51-.82,2.52-1.68S100,173.45,98.57,173.53Z" transform="translate(-60.94 -60.05)"/><path class="cls-2" d="M121.12,74c-1.41.89-2.05,3-1.41,3.64s2.38,0,3.43-.9c.76-.64,1.79-1.95,1.38-2.7S122.29,73.25,121.12,74Z" transform="translate(-60.94 -60.05)"/><path class="cls-2" d="M163.82,131.1c-1.66.1-3.24,1.61-3,2.49s2.09,1.14,3.43.89c1-.19,2.52-.82,2.53-1.68S165.21,131,163.82,131.1Z" transform="translate(-60.94 -60.05)"/><path class="cls-2" d="M74,114.34c-1.14,1.22-1.25,3.4-.47,3.88s2.31-.61,3.1-1.72c.59-.8,1.27-2.32.68-3S74.93,113.33,74,114.34Z" transform="translate(-60.94 -60.05)"/><path class="cls-2" d="M176.82,76.47c-1.66.09-3.24,1.6-3,2.49s2.09,1.14,3.43.88c1-.18,2.52-.82,2.53-1.68S178.21,76.39,176.82,76.47Z" transform="translate(-60.94 -60.05)"/><path class="cls-2" d="M81.81,106.26c-2.27,1-3.7,3.86-2.93,5s3.48.53,5.22-.5c1.27-.74,3.09-2.4,2.68-3.6S83.7,105.45,81.81,106.26Z" transform="translate(-60.94 -60.05)"/><path class="cls-2" d="M106.3,168c-2.27,1-3.7,3.86-2.93,5s3.48.53,5.22-.49c1.27-.75,3.09-2.41,2.68-3.61S108.2,167.16,106.3,168Z" transform="translate(-60.94 -60.05)"/><path class="cls-2" d="M130,68.24c-2.45.34-4.59,2.76-4.14,4s3.22,1.43,5.17.89c1.42-.39,3.61-1.51,3.53-2.78S132,68,130,68.24Z" transform="translate(-60.94 -60.05)"/><path class="cls-5" d="M146.15,61.05c-20.1-2-27.4,2.74-30.86,4-4.5,1.64-6.46,10.52-12.08,11.68-14.14,1-17.84-1.24-22.34,11.06a47.63,47.63,0,0,1-8.17,14.68,22.25,22.25,0,0,1-3.11,3c-2.18,1.71-8,7.47-8.6,19.78-.63-14.42,5.84-20.89,8.13-22.71a20.41,20.41,0,0,0,2.95-2.77,45.69,45.69,0,0,0,7.73-13.9c4.26-11.64,7.76-9.5,21.14-10.47,5.33-1.1,7.18-9.5,11.44-11C115.9,63,123.62,57.93,146.15,61.05Z" transform="translate(-60.94 -60.05)"/><path class="cls-6" d="M188.8,144a24.6,24.6,0,0,0-3.49,17.65S189,178,162.23,183.77a83,83,0,0,0-24.44,8.72,37.76,37.76,0,0,1-19.22,3.34,35.5,35.5,0,0,0,9.61-3,90.72,90.72,0,0,1,26.69-9.55c29.23-6.35,25.22-24.16,25.22-24.16a26.85,26.85,0,0,1,3.8-19.29c12.73-18.87,4.25-35.38,1.92-40.69-1.2-2.72-.08-12.55-3.43-22.67a27.93,27.93,0,0,1,2.86,4.45c5.67,10.84,4,22.92,5.31,25.89C192.67,111.62,200.44,126.74,188.8,144Z" transform="translate(-60.94 -60.05)"/></svg>