<svg id="Layer_1" data-name="Layer 1" xmlns="http://www.w3.org/2000/svg" viewBox="0 0 152.4 152.34"><defs><style>.cls-1{fill:#87d6f5;}.cls-2{fill:#a5cd39;}.cls-3,.cls-4{opacity:0.2;}.cls-4{fill:#fff;}</style></defs><title>EarthIcon</title><path class="cls-1" d="M204.17,128c0,.63,0,1.23,0,1.82l0,.88c0,.44,0,.87-.05,1.31,0,0,0,0,0,0a75.4,75.4,0,0,1-3.38,18.82.06.06,0,0,0,0,0,73.9,73.9,0,0,1-5.76,13.49h0c-.2.39-.42.78-.64,1.16-.6,1.07-1.23,2.13-1.89,3.17s-1.48,2.28-2.28,3.38l-.31.44-.64.86c-.39.52-.78,1-1.19,1.55s-.72.92-1.1,1.38a76,76,0,0,1-56.4,27.8h-.35l-.94,0H128A76.22,76.22,0,0,1,52.65,116.8c.3-2,.67-4,1.12-5.93h0a.11.11,0,0,1,0,0h0a75.41,75.41,0,0,1,4.94-14.51,76.88,76.88,0,0,1,7.72-13.17,0,0,0,0,0,0,0A76.44,76.44,0,0,1,98.71,57.67a75.25,75.25,0,0,1,18.46-5.07l.2,0a76.06,76.06,0,0,1,53.56,12.51h0l1.38,1A75,75,0,0,1,182.69,75a75.93,75.93,0,0,1,9.38,11.81c.29.45.58.91.86,1.37.58.93,1.13,1.88,1.66,2.84.71,1.26,1.38,2.55,2,3.86q1.56,3.22,2.82,6.62c.18.46.35.93.51,1.4q1,2.82,1.75,5.75a2.33,2.33,0,0,1,.07.25c.41,1.59.78,3.21,1.08,4.85.19,1,.36,2.05.51,3.08l.06.4c0,.32.09.65.13,1s.12.92.17,1.38c.17,1.53.3,3.07.37,4.63,0,.36,0,.72.05,1.08C204.15,126.18,204.17,127.09,204.17,128Z" transform="translate(-51.83 -51.83)"/><path class="cls-2" d="M103.27,192.45a2.34,2.34,0,0,1-4.45-.08c-2.64-8.66-6.37-22.92-4.78-29.87,2.37-10.37-7.41-26.08-9.48-26.67s-3.56-9.48,0-11.85,12.44-10.07,19.55-8,19.56,12.15,21,19,4.44,8.3,4.44,8.3a9.72,9.72,0,0,1,4.74,7.7c.3,5.34-.89,5.93-5.33,11.56s-11.85,16.59-17.48,17.18C108.19,180,105.18,186.89,103.27,192.45Z" transform="translate(-51.83 -51.83)"/><path class="cls-2" d="M192.07,86.8c.29.45.58.91.86,1.37a4.49,4.49,0,0,0-4.59-.18c-1.34.94-.52,2.28-1.7,3.92-.5.69-1.55,1.67-10.7,3.07a16.23,16.23,0,0,0-3.61.67,12.27,12.27,0,0,0-5.87,5.08c-1.57,2.78-.83,4.38-2.28,5.21a4.29,4.29,0,0,1-5.09-1.34c-1.07-1.54-.36-3.61,1-7.54a58.39,58.39,0,0,1,2.85-6.5c3.13-6.46,3.79-7.09,3.77-8.94,0-3.43-2.42-4.12-2.41-6.71,0-3.65,4.07-6.68,8-8.86A75,75,0,0,1,182.69,75,75.93,75.93,0,0,1,192.07,86.8Z" transform="translate(-51.83 -51.83)"/><path class="cls-2" d="M196.6,94.87a2.63,2.63,0,0,1-1.24-.76c-.76-.85-.67-2-.77-3.1C195.3,92.27,196,93.56,196.6,94.87Z" transform="translate(-51.83 -51.83)"/><path class="cls-2" d="M204.17,128c0,.63,0,1.23,0,1.82l0,.88c0,.44,0,.87-.05,1.31,0,0,0,0,0,0a75.4,75.4,0,0,1-3.38,18.82.06.06,0,0,0,0,0,73.9,73.9,0,0,1-5.76,13.49A67.43,67.43,0,0,1,191.54,153c-4.25-21.53-14.32-13.83-14.32-13.83s-8.91,5.07-13.66-.49-9.8-22.4-3.95-22.29h0l.21,0c3.25-.45,8.59-3.27,8.59-3.27,4.61-2.42,10-1.84,14.11-1.41,3.52.39,4.38,1,6.88.58,4-.66,3.61-2.89,7.26-3.55a18.67,18.67,0,0,1,5,0,2.33,2.33,0,0,1,.07.25c.41,1.59.78,3.21,1.08,4.85.19,1,.36,2.05.51,3.08l.06.4c0,.32.09.65.13,1s.12.92.17,1.38c.17,1.53.3,3.07.37,4.63,0,.36,0,.72.05,1.08C204.15,126.18,204.17,127.09,204.17,128Z" transform="translate(-51.83 -51.83)"/><path class="cls-3" d="M91.59,194.34a77,77,0,0,0,15.92,4.18,78.69,78.69,0,0,0,11.87.89h.76c1.56,0,3.12-.08,4.66-.18a77.88,77.88,0,0,0,34.68-10.84l.48-.28c.39-.23.78-.47,1.16-.72.77-.48,1.53-1,2.28-1.49a79.41,79.41,0,0,0,33.75-52.84c.26-1.58.49-3.2.65-4.81h0a80.18,80.18,0,0,0-9.42-46.68c.49.63,1,1.25,1.46,1.89a75.67,75.67,0,0,1,9.62,18l.06.15a76.26,76.26,0,0,1,4.69,24.51c0,.57,0,1.15,0,1.73v.26c0,.46,0,.92,0,1.39q0,3-.33,5.91a76.07,76.07,0,0,1-20.4,45.06A75,75,0,0,1,131.8,204.1c-.38,0-.78,0-1.16,0h-2.18l-1,0c-1.48,0-2.91-.12-4.29-.22l-1.14-.1-1-.1-.77-.09c-1.48-.18-2.88-.38-4.19-.6l-1.13-.19c-.81-.13-1.57-.28-2.28-.43l-.81-.18h0l-.25-.06-1.5-.36-.8-.21-1.71-.48h0c-.71-.22-1.41-.43-2.1-.66s-1.38-.45-2.07-.72c-1.35-.47-2.66-1-4-1.54l-.17-.08A2.4,2.4,0,0,1,99,198h0c-.48-.19-.94-.4-1.41-.62l-.24-.11-.33-.15c-.36-.16-.73-.33-1.09-.52l-.34-.16-.61-.32c-.24-.12-.48-.24-.71-.37a.37.37,0,0,1-.14-.07c-.41-.2-.79-.4-1.18-.61l-.54-.3Z" transform="translate(-51.83 -51.83)"/><path class="cls-4" d="M166,61.64a79.77,79.77,0,0,0-16.13-4.17,81.06,81.06,0,0,0-12-.89h-.78c-1.58,0-3.16.08-4.72.18A80,80,0,0,0,97.2,67.58l-.49.28c-.39.23-.79.48-1.17.72-.78.48-1.55,1-2.31,1.49A79.14,79.14,0,0,0,59,122.82c-.27,1.58-.5,3.19-.66,4.8h0a79.63,79.63,0,0,0-.43,8.22,78.41,78.41,0,0,0,10,38.37c-.49-.62-1-1.24-1.47-1.88a75.38,75.38,0,0,1-9.75-18l-.06-.15a74.73,74.73,0,0,1-4.76-24.46c0-.57,0-1.16,0-1.73v-.26c0-.46,0-.92,0-1.39q0-3,.33-5.9a75.43,75.43,0,0,1,20.68-45A76.56,76.56,0,0,1,125.27,51.9c.38,0,.79,0,1.17,0h2.21l1,0c1.51,0,3,.12,4.35.22l1.16.1,1,.1.78.09c1.51.18,2.93.37,4.25.59.4.06.78.12,1.15.2.82.13,1.6.28,2.31.43l.82.18h0l.26.06,1.52.36.81.21,1.74.47h0c.72.22,1.42.43,2.12.66s1.4.46,2.1.72c1.36.47,2.7,1,4,1.54l.17.08.23.1h0c.49.2.95.41,1.43.63l.24.11.34.15c.36.16.73.33,1.1.52l.34.16c.21.1.43.2.63.31s.49.24.72.37a.37.37,0,0,1,.14.07c.42.2.8.4,1.2.62l.54.3Z" transform="translate(-51.83 -51.83)"/><path class="cls-2" d="M116.85,67.67C113.52,78.22,100,84.61,98.36,85.36l-.32.13A23.41,23.41,0,0,0,82.47,105.8a4.07,4.07,0,0,0,1.8,3.7h0a4,4,0,0,1-.8,7.16,9.87,9.87,0,0,1-6.91.19c-6.23-2.37-6.33-9-8.89-11.26s-3-10.07-2.37-14.22c.31-2.2.54-5.07,1.14-8.25a0,0,0,0,0,0,0A76.44,76.44,0,0,1,98.71,57.67a75.25,75.25,0,0,1,18.46-5.07l.2,0A29,29,0,0,1,116.85,67.67Z" transform="translate(-51.83 -51.83)"/><path class="cls-4" d="M166,61.64a79.77,79.77,0,0,0-16.13-4.17,81.06,81.06,0,0,0-12-.89h-.78c-1.58,0-3.16.08-4.72.18A80,80,0,0,0,97.2,67.58l-.49.28c-.39.23-.79.48-1.17.72-.78.48-1.55,1-2.31,1.49A79.14,79.14,0,0,0,59,122.82c-.27,1.58-.5,3.19-.66,4.8h0a79.63,79.63,0,0,0-.43,8.22,78.41,78.41,0,0,0,10,38.37c-.49-.62-1-1.24-1.47-1.88a75.38,75.38,0,0,1-9.75-18l-.06-.15a74.73,74.73,0,0,1-4.76-24.46c0-.57,0-1.16,0-1.73v-.26c0-.46,0-.92,0-1.39q0-3,.33-5.9a75.43,75.43,0,0,1,20.68-45A76.56,76.56,0,0,1,125.27,51.9c.38,0,.79,0,1.17,0h2.21l1,0c1.51,0,3,.12,4.35.22l1.16.1,1,.1.78.09c1.51.18,2.93.37,4.25.59.4.06.78.12,1.15.2.82.13,1.6.28,2.31.43l.82.18h0l.26.06,1.52.36.81.21,1.74.47h0c.72.22,1.42.43,2.12.66s1.4.46,2.1.72c1.36.47,2.7,1,4,1.54l.17.08.23.1h0c.49.2.95.41,1.43.63l.24.11.34.15c.36.16.73.33,1.1.52l.34.16c.21.1.43.2.63.31s.49.24.72.37a.37.37,0,0,1,.14.07c.42.2.8.4,1.2.62l.54.3Z" transform="translate(-51.83 -51.83)"/></svg>