<svg id="Layer_1" data-name="Layer 1" xmlns="http://www.w3.org/2000/svg" viewBox="0 0 152.44 152.48"><defs><style>.cls-1{fill:#8c593b;}.cls-2{fill:#bf8450;}.cls-3{fill:#54362a;}.cls-4{fill:#9e6d42;}.cls-5{fill:#fff;}.cls-5,.cls-6{opacity:0.2;}</style></defs><title>JupiterIcon</title><path class="cls-1" d="M204.48,128c0,.74,0,1.47,0,2.2a75.7,75.7,0,0,1-4.29,23.18c-.09.26-.19.52-.29.78a76.25,76.25,0,0,1-71.55,50q-3,0-5.9-.23A76.13,76.13,0,0,1,71.73,179l-.47-.54A75.87,75.87,0,0,1,63,167.24c-.7-1.16-1.37-2.33-2-3.53s-1.27-2.46-1.85-3.72a75.48,75.48,0,0,1-7-30.19c0-.54,0-1.08,0-1.63V128a76,76,0,0,1,5.27-27.91q1-2.45,2.09-4.8a76.5,76.5,0,0,1,7.26-12.18c.24-.34.49-.67.75-1,1.17-1.56,2.42-3.08,3.72-4.54A76.24,76.24,0,0,1,150.3,55.09h0l.89.28a75.8,75.8,0,0,1,7.87,3,74.66,74.66,0,0,1,9.61,5.09h0a76.31,76.31,0,0,1,28.6,32.28c.23.49.46,1,.67,1.47.4.87.77,1.75,1.12,2.64A74.38,74.38,0,0,1,202,108.7,76,76,0,0,1,204.48,128Z" transform="translate(-52.06 -51.72)"/><path class="cls-2" d="M192,86.26c-25.67,6.13-68.27,14.43-138.15,25.59a75.74,75.74,0,0,1,3.55-11.73q1-2.45,2.09-4.8a76.5,76.5,0,0,1,7.26-12.18c.24-.34.49-.67.75-1,24.64-4.44,65.77-12.9,91.56-23.8a74.66,74.66,0,0,1,9.61,5.09h0A76.66,76.66,0,0,1,192,86.26Z" transform="translate(-52.06 -51.72)"/><path class="cls-2" d="M199.86,154.19a75.71,75.71,0,0,1-14.12,23.87c-22.6,4.85-55.28,12.61-82.26,22a76.32,76.32,0,0,1-31.75-21l-.47-.54A75.87,75.87,0,0,1,63,167.24C93.82,167.25,161.46,165.83,199.86,154.19Z" transform="translate(-52.06 -51.72)"/><path class="cls-3" d="M204.48,128c0,.74,0,1.47,0,2.2A116.1,116.1,0,0,1,181,141.42c-2.2,5.32-8.17,9.78-15.76,11.1a22.34,22.34,0,0,1-15.42-2.5c-31,6.55-65.51,9-90.62,10a75.48,75.48,0,0,1-7-30.19c25.75-2.44,59.74-9.84,89.79-17.4,2.75-4.36,8.1-7.86,14.66-9A23.1,23.1,0,0,1,170.3,105c10.92-3,20.44-5.69,27.66-7.79.4.87.77,1.75,1.12,2.64A74.38,74.38,0,0,1,202,108.7,76,76,0,0,1,204.48,128Z" transform="translate(-52.06 -51.72)"/><path class="cls-2" d="M164.48,143.42a12.4,12.4,0,0,1-10.93-3.29,18.17,18.17,0,0,1-4.27-20.1,12.36,12.36,0,0,1,8.64-7.45c7.13-1.52,14.37,4.16,16.18,12.68S171.61,141.91,164.48,143.42Z" transform="translate(-52.06 -51.72)"/><path class="cls-4" d="M158.78,140.67a8.68,8.68,0,0,1-5.23-.54,18.17,18.17,0,0,1-4.27-20.1,8.67,8.67,0,0,1,4.55-2.62c5.37-1.14,10.84,3.14,12.2,9.56S164.15,139.53,158.78,140.67Z" transform="translate(-52.06 -51.72)"/><path class="cls-5" d="M165.51,61.54a78.84,78.84,0,0,0-16-4.17,80,80,0,0,0-12-.89h-.77c-1.57,0-3.14.08-4.69.18A78.87,78.87,0,0,0,97.13,67.5l-.48.28c-.4.23-.79.47-1.17.71-.77.49-1.54,1-2.29,1.5a79.35,79.35,0,0,0-34,52.83c-.26,1.58-.49,3.2-.65,4.81h0a77.3,77.3,0,0,0-.43,8.24A79,79,0,0,0,68,174.31c-.5-.63-1-1.25-1.47-1.89a75.63,75.63,0,0,1-9.68-18l-.06-.15a75.48,75.48,0,0,1-4.73-24.51c0-.57,0-1.15,0-1.73v-.26c0-.46,0-.92,0-1.39q0-3,.33-5.91A76,76,0,0,1,125,51.79l1.17,0h2.19l1,0c1.5,0,2.93.12,4.32.22l1.15.1,1,.1.78.09c1.5.18,2.9.38,4.22.6.39.06.78.12,1.14.19.81.13,1.59.28,2.3.43l.81.18h0l.26.06,1.5.36.81.21,1.73.48h0c.71.22,1.42.43,2.11.66s1.39.45,2.08.71c1.36.48,2.69,1,4,1.55l.17.08.24.1h0c.48.2.94.41,1.41.63l.25.11.33.15c.36.16.73.33,1.09.52l.34.16c.21.1.43.2.63.31l.71.38a.37.37,0,0,1,.14.07c.42.2.8.4,1.19.61l.54.3Z" transform="translate(-52.06 -51.72)"/><path class="cls-6" d="M91.05,194.38a78.84,78.84,0,0,0,16,4.17,79.85,79.85,0,0,0,12,.89h.78q2.35,0,4.68-.18a78.91,78.91,0,0,0,34.94-10.84l.48-.28,1.16-.71c.78-.49,1.54-1,2.3-1.5a79.35,79.35,0,0,0,34-52.83c.26-1.58.49-3.2.65-4.81h0a80,80,0,0,0,.42-8.24,79.05,79.05,0,0,0-9.9-38.43c.49.63,1,1.25,1.46,1.89a75.31,75.31,0,0,1,9.69,18l.06.15a75.74,75.74,0,0,1,4.72,24.51c0,.57,0,1.15,0,1.73v.26c0,.46,0,.92,0,1.39q0,3-.33,5.91a76,76,0,0,1-72.6,68.67c-.38,0-.78,0-1.17,0h-2.19l-1,0c-1.5,0-2.94-.12-4.33-.22l-1.14-.1-1-.1-.77-.09q-2.25-.27-4.23-.6l-1.13-.19c-.82-.13-1.59-.28-2.31-.43l-.81-.18h0l-.25-.06-1.51-.36-.8-.21-1.73-.48h0c-.72-.22-1.42-.43-2.12-.66s-1.38-.45-2.08-.71c-1.35-.48-2.68-1-4-1.55l-.17-.08-.23-.1h0c-.48-.2-1-.41-1.42-.63l-.24-.11-.33-.15c-.36-.16-.74-.33-1.1-.52l-.34-.16c-.2-.1-.42-.2-.62-.31l-.72-.38a.37.37,0,0,1-.14-.07c-.41-.2-.79-.4-1.19-.61l-.54-.3Z" transform="translate(-52.06 -51.72)"/><circle class="cls-4" cx="51.53" cy="139.97" r="4.95"/><circle class="cls-4" cx="63.21" cy="137.92" r="2.48"/><circle class="cls-4" cx="107.05" cy="17.45" r="5.93"/><circle class="cls-4" cx="93.8" cy="22.56" r="2.97"/><circle class="cls-4" cx="85.93" cy="92.52" r="3.96"/><circle class="cls-4" cx="76.17" cy="95.58" r="2.32"/></svg>