<svg id="Layer_1" data-name="Layer 1" xmlns="http://www.w3.org/2000/svg" viewBox="0 0 152.62 152.64"><defs><style>.cls-1{fill:#f27b35;}.cls-2{fill:#d95436;}.cls-3{fill:#d97257;}.cls-4{fill:#fff;}.cls-4,.cls-5{opacity:0.2;}</style></defs><title>MarsIcon</title><path class="cls-1" d="M204.31,128a70.28,70.28,0,0,1-1.4,14c-.1.54-.21,1.06-.33,1.59-.17.77-.35,1.53-.54,2.27s-.41,1.49-.62,2.23-.43,1.46-.66,2.18-.47,1.41-.72,2.11v0c-.49,1.38-1,2.72-1.55,4-.12.27-.24.56-.35.83h0c-.43,1-.88,2-1.34,3-.6,1.29-1.24,2.53-1.89,3.71a84.8,84.8,0,0,1-13.18,18.29c-.4.41-.71.72-.93.91-.43.39-1.14,1.09-2.15,2a79.31,79.31,0,0,1-7.09,5.5c-1.13.79-2.36,1.59-3.67,2.4,0,0,0,0,0,0-.73.47-1.49.91-2.29,1.36-.64.39-1.32.76-2,1.13s-1.22.64-1.86,1-1.49.74-2.27,1.1c-10.35-.17-12.72-4.17-34.15-6.25-14.5-1.39-21.87-2-27.81,2.16a19.68,19.68,0,0,0-2.51,2.11c-.81-.4-1.61-.83-2.41-1.26a3.35,3.35,0,0,0-.36-.21c-1.36-.76-2.68-1.53-4-2.37-1.12-.7-2.22-1.43-3.31-2.19s-2.42-1.73-3.59-2.64c-.91-.72-1.82-1.46-2.69-2.22a2.07,2.07,0,0,1-.39-.33c-.78-.66-1.54-1.32-2.27-2a.16.16,0,0,1-.08-.08c-.54-.51-1.07-1-1.59-1.54,0,0,0,0,0,0s0,0,0,0c-.62-.61-1.22-1.21-1.82-1.85s-1.46-1.53-2.16-2.33c-.52-.6-1-1.22-1.57-1.84-.74-.89-1.46-1.81-2.16-2.74s-1.24-1.67-1.82-2.52c-1.11-1.59-2.16-3.22-3.15-4.91-.42-.74-.83-1.48-1.24-2.22s-.68-1.3-1-2a1.43,1.43,0,0,1-.15-.33c-.49-1-.94-1.92-1.36-2.89a70.16,70.16,0,0,1-2.7-7.18c-.27-.86-.52-1.71-.76-2.56s-.41-1.52-.58-2.28c-.1-.38-.19-.75-.27-1.14-.27-1.19-.51-2.41-.7-3.63-.14-.72-.25-1.46-.35-2.19,0-.3-.08-.57-.12-.86,0-.46-.11-.95-.15-1.42,0-.29-.06-.58-.08-.87-.08-.76-.14-1.49-.17-2.27s-.1-1.57-.12-2.39v-.13a.06.06,0,0,1,0-.08c0-.66,0-1.34,0-2,0-2.33.12-4.64.31-6.91a.34.34,0,0,1,0-.14c0-.4.06-.77.1-1.16v0a75.22,75.22,0,0,1,9.57-29.53c.42-.75.87-1.49,1.32-2.23a74.2,74.2,0,0,1,4.44-6.44c.84-1.09,1.69-2.14,2.59-3.17.58-.69,1.18-1.37,1.79-2l.32-.34c.66-.71,1.33-1.41,2-2.1s1.13-1.11,1.71-1.65,1.16-1.07,1.75-1.59c.16-.16.32-.3.47-.43,5.69.1,12,1.22,20.56-.49a30.63,30.63,0,0,0,4.09-1.08,33,33,0,0,0,12.51-8c5.92-5.57,15.37-7.65,22.22-8.41,1.54.2,3.07.43,4.58.72l1.65.33c.48.1,1,.2,1.45.32l.17,0h0c.49.11,1,.23,1.48.36s.85.21,1.27.33l.94.26c1.28.36,2.54.76,3.78,1.19.42.14.84.28,1.26.44l.65.24,1.14.43,1.35.55c.82.34,1.63.69,2.44,1.06l.43.2a76.43,76.43,0,0,1,33.29,29.89c.19.31.39.64.56,1,.45.76.88,1.52,1.28,2.29.24.39.43.8.65,1.19l1,2c.51,1.08,1,2.15,1.46,3.24.21.48.43,1,.62,1.51s.33.84.47,1.24c.66,1.73,1.24,3.48,1.76,5.24q.33,1.11.63,2.22c.25.93.46,1.88.67,2.83s.41,1.88.59,2.86.31,1.78.42,2.67c0,.08,0,.14,0,.22s0,.11,0,.17c.12.86.22,1.71.31,2.58s.2,1.91.26,2.86C204.25,124.48,204.31,126.22,204.31,128Z" transform="translate(-51.69 -51.68)"/><path class="cls-2" d="M193.38,88.64C140.66,92.21,82.46,106,54.85,106.15a75,75,0,0,1,6.84-15.92A68.76,68.76,0,0,0,76,88.52c3.13-.73,7.65-1.8,7.65-3.06-.06-1.85-9.68-2.31-16.21-3.9.84-1.09,1.69-2.14,2.59-3.17.58-.69,1.18-1.37,1.79-2l.32-.34c.66-.71,1.33-1.41,2-2.1s1.13-1.11,1.71-1.65,1.16-1.07,1.75-1.59c.16-.16.32-.3.47-.43,5.69.1,12,1.22,20.56-.49a30.63,30.63,0,0,0,4.09-1.08,33,33,0,0,0,12.51-8c5.92-5.57,15.37-7.65,22.22-8.41,1.54.2,3.07.43,4.58.72l1.65.33c.48.1,1,.2,1.45.32l.17,0h0c.49.11,1,.23,1.48.36s.85.21,1.27.33l.94.26c1.28.36,2.54.76,3.78,1.19.42.14.84.28,1.26.44l.65.24,1.14.43,1.35.55c.82.34,1.63.69,2.44,1.06l.43.2a76.14,76.14,0,0,1,9.84,5.49c-5.07.84-16.5.18-28.22,4.39A46.83,46.83,0,0,0,132,73.39c-.86.54-1.7,1.13-2.53,1.76-4.38,3.3-4.17,4.44-4.09,4.74,1.16,4.32,25.53-2.29,59.5-2.72A75.94,75.94,0,0,1,193.38,88.64Z" transform="translate(-51.69 -51.68)"/><path class="cls-2" d="M202.91,142c-.1.54-.21,1.06-.33,1.59-.17.77-.35,1.53-.54,2.27s-.41,1.49-.62,2.23-.43,1.46-.66,2.18-.47,1.41-.72,2.11v0c-.49,1.38-1,2.72-1.55,4-.12.27-.24.56-.35.83h0c-.43,1-.88,2-1.34,3-.6,1.29-1.24,2.53-1.89,3.71a84.8,84.8,0,0,1-13.18,18.29c-.4.41-.71.72-.93.91-.43.39-1.14,1.09-2.15,2a79.31,79.31,0,0,1-7.09,5.5c-1.13.79-2.36,1.59-3.67,2.4,0,0,0,0,0,0-.73.47-1.49.91-2.29,1.36-.64.39-1.32.76-2,1.13s-1.22.64-1.86,1-1.49.74-2.27,1.1c-10.35-.17-12.72-4.17-34.15-6.25-14.5-1.39-21.87-2-27.81,2.16a19.68,19.68,0,0,0-2.51,2.11c-.81-.4-1.61-.83-2.41-1.26a3.35,3.35,0,0,0-.36-.21c-1.36-.76-2.68-1.53-4-2.37-1.12-.7-2.22-1.43-3.31-2.19s-2.42-1.73-3.59-2.64c-.91-.72-1.82-1.46-2.69-2.22a2.07,2.07,0,0,1-.39-.33c-.78-.66-1.54-1.32-2.27-2a.16.16,0,0,1-.08-.08c-.54-.51-1.07-1-1.59-1.54,0,0,0,0,0,0s0,0,0,0c-.62-.61-1.22-1.21-1.82-1.85s-1.46-1.53-2.16-2.33c33.45-13.1,80-27.41,95.84-29.15,2.23-.26,8.54-1,9.49,1.28,1.42,3.32-9.78,11.1-11.22,12.07-9.8,6.83-16.85,7.8-16.6,9.28.33,2,14.06,5.24,24.58-1.07,9.55-5.72,8.54-14.56,20.5-22.22C195.44,144.92,199.51,142.3,202.91,142Z" transform="translate(-51.69 -51.68)"/><path class="cls-2" d="M113.83,121.58c-.89,5.4-9.3,5.79-19.68,12.21-4.53,2.8-21.61,13.4-20,17.55,1.13,2.89,10.42.45,11.78,3.88,1.19,3-4.54,7.85-6.32,9.34-2.53,2.16-6.2,4.74-13.15,7.28-.64-.81-1.24-1.67-1.82-2.52-1.11-1.59-2.16-3.22-3.15-4.91-.42-.74-.83-1.48-1.24-2.22s-.68-1.3-1-2a1.43,1.43,0,0,1-.15-.33c-.49-1-.94-1.92-1.36-2.89a70.16,70.16,0,0,1-2.7-7.18c-.27-.86-.52-1.71-.76-2.56s-.41-1.52-.58-2.28c-.1-.38-.19-.75-.27-1.14-.27-1.19-.51-2.41-.7-3.63-.14-.72-.25-1.46-.35-2.19,0-.3-.08-.57-.12-.86,0-.46-.11-.95-.15-1.42,0-.29-.06-.58-.08-.87-.08-.76-.14-1.49-.17-2.27s-.1-1.57-.12-2.39v-.13a.06.06,0,0,1,0-.08c0-.66,0-1.34,0-2,0-2.33.12-4.64.31-6.91a.34.34,0,0,1,0-.14c25.37-2.09,36.38-3.72,41.25-4.93a58.76,58.76,0,0,1,8-1.18c7.92-.86,9.65-.06,10.68.87A6.81,6.81,0,0,1,113.83,121.58Z" transform="translate(-51.69 -51.68)"/><path class="cls-2" d="M204.12,122.75c-22.48,10.19-84.39,21.56-85.83,14.48-.36-1.77,3.44-4,11-8.43,16.07-9.39,29.72-11.45,29.43-12.92-.19-1.11-8.06-1.79-15.37-.64-2.82.44-6.35,1.28-10.39-.24-1.07-.39-3.49-1.3-3.75-3-.19-1.26.9-3,5.32-5.59,8.7-5,18.21-6.13,26.46-7.63,14.72-2.66,22.07-4,30.85-8.19l2.09-1c.45.76.88,1.52,1.28,2.29.24.39.43.8.65,1.19l1,2c.51,1.08,1,2.15,1.46,3.24.21.48.43,1,.62,1.51s.33.84.47,1.24c.66,1.73,1.24,3.48,1.76,5.24q.33,1.11.63,2.22c.25.93.46,1.88.67,2.83s.41,1.88.59,2.86.31,1.78.42,2.67c0,.08,0,.14,0,.22s0,.11,0,.17c.12.86.22,1.71.31,2.58S204.06,121.8,204.12,122.75Z" transform="translate(-51.69 -51.68)"/><path class="cls-3" d="M137.49,52.28c-6.85.76-16.3,2.84-22.22,8.41a33,33,0,0,1-12.51,8,30.63,30.63,0,0,1-4.09,1.08c-8.6,1.71-14.87.59-20.56.49A76.15,76.15,0,0,1,103.52,55.7l0,0a76.16,76.16,0,0,1,24.46-4h.87c2,0,3.91.12,5.81.29h0C135.63,52.05,136.56,52.15,137.49,52.28Z" transform="translate(-51.69 -51.68)"/><path class="cls-3" d="M159.41,197.5A69.76,69.76,0,0,1,128,204.3a77.73,77.73,0,0,1-33.06-8.78,19.68,19.68,0,0,1,2.51-2.11c5.94-4.18,13.31-3.55,27.81-2.16C146.69,193.33,149.06,197.33,159.41,197.5Z" transform="translate(-51.69 -51.68)"/><path class="cls-4" d="M165.17,61.43a78.06,78.06,0,0,0-16-4.14,79.88,79.88,0,0,0-12-.89h-.77c-1.57,0-3.14.08-4.69.18A79.59,79.59,0,0,0,96.77,67.33l-.48.28-1.17.71c-.77.48-1.54,1-2.29,1.49a78.66,78.66,0,0,0-34,52.41c-.26,1.57-.49,3.17-.65,4.77h0a78.59,78.59,0,0,0,9.48,46.3c-.49-.62-1-1.24-1.47-1.88a74.72,74.72,0,0,1-9.68-17.87l-.06-.15a74.34,74.34,0,0,1-4.73-24.31c0-.57,0-1.14,0-1.71v-.26c0-.46,0-.92,0-1.38q0-3,.33-5.87A74.94,74.94,0,0,1,72.59,75.18a76.07,76.07,0,0,1,52.07-23.43c.38,0,.79,0,1.17,0H128l1,0c1.5,0,2.93.12,4.32.22l1.15.1,1,.1.77.09c1.5.18,2.91.37,4.22.59l1.14.19c.82.13,1.59.28,2.3.43l.82.18h0l.25.06c1,.23,1.21.27,1.51.35l.8.21,1.73.47h0c.72.22,1.42.43,2.12.66s1.38.45,2.08.71c1.36.47,2.68,1,4,1.54l.17.08.23.1h0c.49.18.95.39,1.42.61l.24.11.34.15c.36.16.73.33,1.09.52l.34.16c.2.1.43.2.63.31s.48.24.71.37a.37.37,0,0,1,.14.07c.41.2.8.4,1.19.61l.54.3Z" transform="translate(-51.69 -51.68)"/><path class="cls-5" d="M92.11,194.07a77,77,0,0,0,15.83,4.17,77.86,77.86,0,0,0,11.8.89h.76c1.55,0,3.1-.08,4.63-.18a77.3,77.3,0,0,0,34.49-10.83l.48-.29,1.15-.71c.76-.48,1.52-1,2.26-1.5a79.44,79.44,0,0,0,33.57-52.82c.25-1.58.48-3.2.64-4.8h0a80.47,80.47,0,0,0-9.36-46.66c.49.62,1,1.25,1.45,1.89a75.89,75.89,0,0,1,9.56,18l.06.16a76.45,76.45,0,0,1,4.67,24.5c0,.57,0,1.15,0,1.72v.27c0,.46,0,.92,0,1.38q0,3-.33,5.91a76.21,76.21,0,0,1-20.28,45,74.4,74.4,0,0,1-51.4,23.62c-.38,0-.77,0-1.15,0h-2.17l-1,0c-1.48,0-2.9-.12-4.27-.22l-1.13-.1-1-.1-.77-.09q-2.22-.27-4.17-.6l-1.12-.19c-.8-.13-1.57-.28-2.27-.43l-.81-.18h0l-.24-.06-1.49-.36-.8-.21-1.7-.48h0c-.71-.22-1.4-.43-2.09-.66s-1.37-.45-2-.71c-1.34-.48-2.65-1-4-1.55l-.16-.08-.23-.1h0c-.48-.19-.94-.41-1.4-.63L97.8,197l-.33-.15c-.36-.16-.72-.33-1.08-.52l-.34-.16-.61-.31-.71-.38a.37.37,0,0,1-.14-.07l-1.17-.61-.53-.3Z" transform="translate(-51.69 -51.68)"/></svg>