<svg id="Layer_1" data-name="Layer 1" xmlns="http://www.w3.org/2000/svg" viewBox="0 0 152.34 152.34"><defs><style>.cls-1{fill:#a69c94;}.cls-2{fill:#656a73;}.cls-3{fill:#fff;}.cls-3,.cls-4{opacity:0.2;}</style></defs><title>MercuryIcon</title><path class="cls-1" d="M204.17,128A76.09,76.09,0,0,1,128,204.17q-3,0-5.9-.23A76.13,76.13,0,0,1,71.42,179l-.47-.54A76.18,76.18,0,0,1,150,55.06h0l.89.28A76.11,76.11,0,0,1,204.17,128Z" transform="translate(-51.83 -51.83)"/><path class="cls-2" d="M198.77,99.79l-1.13,13.84a.81.81,0,0,1-1.58.17l-6-20a.81.81,0,0,0-1.5-.13L176.24,118a.81.81,0,0,1-1.52-.51l6.52-33.21a.81.81,0,0,0-.85-1l-12,.92a.81.81,0,0,0-.7.54l-1.48,4.32a.82.82,0,0,1-.48.5l-43.19,16a.81.81,0,0,1-.69-1.46l28.06-16.37a.81.81,0,0,0-.46-1.5l-19.46,1.36a.8.8,0,0,1-.3-1.57l13.87-4.42a.81.81,0,0,0-.31-1.58l-50.58,4a.81.81,0,0,1-.42-1.53l35.5-17.43a.81.81,0,0,0-.24-1.52L108,60.77a.81.81,0,0,1,0-1.6L150,55.06h0l.89.28A76.31,76.31,0,0,1,198.77,99.79Z" transform="translate(-51.83 -51.83)"/><path class="cls-2" d="M105.8,118.66l-42.51.25a1,1,0,0,0-1,1.29l4.13,14.6a1,1,0,0,0,.84.73l5.69.74a1,1,0,0,1,.73.48l30.5,49.18a1,1,0,0,1-1.62,1.21L75.44,156.67a1,1,0,0,0-1.73.94l6.52,23.62a1,1,0,0,1-1.86.76l-8.9-16a1,1,0,0,0-1.86.78L71,178.45A76.26,76.26,0,0,1,57.1,100.09l11.55-5.46a.9.9,0,0,1,.32-.09l26.4-3.14A1,1,0,0,1,96,93.3L72.79,105.73A1,1,0,0,0,73,107.6l33.06,9.07A1,1,0,0,1,105.8,118.66Z" transform="translate(-51.83 -51.83)"/><path class="cls-2" d="M136.79,162.1a.75.75,0,0,0-.87,1.12l4.54,7.07a.75.75,0,0,1-1.09,1l-38.5-29.4a.75.75,0,0,0-1.1,1l32,52.23a.74.74,0,0,1-.16,1l-9.51,7.86q2.91.23,5.9.23a76.2,76.2,0,0,0,71.84-50.79l-2.8-3.87-.07-.13-6.22-13.72a.73.73,0,0,0-.67-.44L170.49,135a.8.8,0,0,1-.3-.06l-27.52-12.19a.75.75,0,0,0-.77,1.27l17.84,14.08a.75.75,0,0,1-.46,1.34H132.37a.75.75,0,0,0-.09,1.5l40,5.1a.76.76,0,0,1,.64.59l5.83,26a.76.76,0,0,1-1,.88l-10.9-3.42" transform="translate(-51.83 -51.83)"/><path class="cls-2" d="M158.39,175.91a.75.75,0,0,0,.9.16" transform="translate(-51.83 -51.83)"/><path class="cls-3" d="M165.28,61.65a78.84,78.84,0,0,0-16-4.17,79.88,79.88,0,0,0-12-.89h-.77c-1.57,0-3.14.08-4.69.18A78.87,78.87,0,0,0,96.9,67.61l-.48.28c-.4.23-.79.47-1.17.71-.77.49-1.54,1-2.29,1.5a79.35,79.35,0,0,0-34,52.83c-.26,1.58-.49,3.2-.65,4.81h0a77.3,77.3,0,0,0-.43,8.24,79,79,0,0,0,9.91,38.43c-.49-.63-1-1.25-1.47-1.89a75.63,75.63,0,0,1-9.68-18l-.06-.15a75.53,75.53,0,0,1-4.73-24.51c0-.57,0-1.15,0-1.73v-.26c0-.46,0-.92,0-1.39q0-3,.33-5.91a76.05,76.05,0,0,1,72.6-68.67l1.17,0h2.19l1,0c1.5,0,2.93.12,4.32.22l1.15.1,1,.1.78.09c1.5.18,2.9.37,4.22.6l1.14.19c.81.13,1.59.28,2.3.43l.82.18h0l.25.06,1.5.36.81.21,1.73.48h0c.71.22,1.42.43,2.11.66s1.39.45,2.08.71c1.36.48,2.69,1,4,1.55l.18.08.23.1h0c.48.2.94.41,1.41.63l.25.11.33.15c.36.16.73.33,1.09.52l.35.16c.2.1.42.2.62.31l.71.38a.37.37,0,0,1,.14.07c.42.2.8.4,1.19.61l.54.3Z" transform="translate(-51.83 -51.83)"/><path class="cls-4" d="M90.72,194.35a78.84,78.84,0,0,0,16,4.17,79.88,79.88,0,0,0,12,.89h.77c1.57,0,3.14-.08,4.69-.18a78.87,78.87,0,0,0,34.93-10.84l.48-.28c.4-.23.79-.47,1.17-.71.77-.49,1.54-1,2.29-1.5a79.35,79.35,0,0,0,34-52.83c.26-1.58.49-3.2.65-4.81h0a77.3,77.3,0,0,0,.43-8.24,79,79,0,0,0-9.91-38.43c.49.63,1,1.25,1.47,1.89a75.63,75.63,0,0,1,9.68,18l.06.15a75.48,75.48,0,0,1,4.73,24.51c0,.57,0,1.15,0,1.73v.26c0,.46,0,.92,0,1.39q0,3-.33,5.91a76.05,76.05,0,0,1-72.6,68.67c-.39,0-.79,0-1.17,0h-2.19l-1,0c-1.5,0-2.93-.12-4.32-.22l-1.15-.1-1-.1-.78-.09c-1.5-.18-2.9-.38-4.22-.6l-1.14-.19c-.81-.13-1.59-.28-2.3-.43l-.82-.18h0l-.25-.06-1.5-.36-.81-.21-1.73-.48h0c-.71-.22-1.42-.43-2.11-.66s-1.39-.45-2.08-.71c-1.36-.48-2.69-1-4-1.55l-.18-.08-.23-.1h0c-.48-.2-.94-.41-1.41-.63l-.25-.11-.33-.15c-.36-.16-.73-.33-1.09-.52l-.35-.16c-.2-.1-.42-.2-.62-.31l-.71-.38a.37.37,0,0,1-.14-.07c-.42-.2-.8-.4-1.19-.61l-.54-.3Z" transform="translate(-51.83 -51.83)"/></svg>