<svg id="Layer_1" data-name="Layer 1" xmlns="http://www.w3.org/2000/svg" xmlns:xlink="http://www.w3.org/1999/xlink" viewBox="0 0 162.21 133.12"><defs><style>.cls-1{opacity:0.3;}.cls-2{fill:url(#radial-gradient);}.cls-3{fill:#7276ed;}.cls-4{fill:url(#radial-gradient-2);}.cls-5{fill:url(#radial-gradient-3);}.cls-6{fill:url(#radial-gradient-4);}.cls-7{fill:url(#radial-gradient-5);}.cls-8{fill:url(#radial-gradient-6);}.cls-9{fill:url(#radial-gradient-7);}.cls-10{fill:url(#radial-gradient-8);}.cls-11{fill:url(#radial-gradient-9);}.cls-12{fill:url(#radial-gradient-10);}.cls-13{fill:url(#radial-gradient-11);}.cls-14{fill:url(#radial-gradient-12);}.cls-15{fill:url(#radial-gradient-13);}.cls-16{fill:#f26d12;}.cls-17{fill:#7289a6;}.cls-18{fill:#274073;}.cls-19{fill:#435d91;}.cls-20{fill:#1d3759;}</style><radialGradient id="radial-gradient" cx="102.72" cy="146.93" r="2.99" gradientTransform="translate(31.43 -69.49) rotate(25.46)" gradientUnits="userSpaceOnUse"><stop offset="0" stop-color="#fff"/><stop offset="1" stop-color="#fff" stop-opacity="0"/></radialGradient><radialGradient id="radial-gradient-2" cx="102.73" cy="57.35" r="3.84" xlink:href="#radial-gradient"/><radialGradient id="radial-gradient-3" cx="10.56" cy="86.35" r="3.84" xlink:href="#radial-gradient"/><radialGradient id="radial-gradient-4" cx="51.32" cy="55.85" r="2.99" xlink:href="#radial-gradient"/><radialGradient id="radial-gradient-5" cx="51.32" cy="141.37" r="2.99" xlink:href="#radial-gradient"/><radialGradient id="radial-gradient-6" cx="33.36" cy="96.7" r="2.99" xlink:href="#radial-gradient"/><radialGradient id="radial-gradient-7" cx="59.76" cy="107.08" r="1.86" xlink:href="#radial-gradient"/><radialGradient id="radial-gradient-8" cx="200.64" cy="123.61" r="2.75" xlink:href="#radial-gradient"/><radialGradient id="radial-gradient-9" cx="118.45" cy="40.26" r="2.75" xlink:href="#radial-gradient"/><radialGradient id="radial-gradient-10" cx="153.26" cy="39.66" r="2.75" xlink:href="#radial-gradient"/><radialGradient id="radial-gradient-11" cx="153.26" cy="118.49" r="2.75" xlink:href="#radial-gradient"/><radialGradient id="radial-gradient-12" cx="169.11" cy="63.74" r="4.04" xlink:href="#radial-gradient"/><radialGradient id="radial-gradient-13" cx="165.7" cy="90.73" r="2.75" xlink:href="#radial-gradient"/></defs><title>MilkyWayIcon</title><g class="cls-1"><circle class="cls-2" cx="61.01" cy="107.32" r="2.99"/><circle class="cls-3" cx="61.03" cy="107.28" r="1.54"/><circle class="cls-4" cx="99.52" cy="26.45" r="3.84"/><circle class="cls-3" cx="99.55" cy="26.4" r="1.98"/><circle class="cls-5" cx="3.84" cy="13.01" r="3.84"/><circle class="cls-3" cx="3.87" cy="12.97" r="1.98"/><circle class="cls-6" cx="53.75" cy="2.99" r="2.99"/><circle class="cls-3" cx="53.77" cy="2.95" r="1.54"/><circle class="cls-7" cx="16.99" cy="80.21" r="2.99"/><circle class="cls-3" cx="17.01" cy="80.17" r="1.54"/><circle class="cls-8" cx="19.98" cy="32.16" r="2.99"/><circle class="cls-3" cx="20" cy="32.12" r="1.54"/><circle class="cls-9" cx="39.36" cy="52.88" r="1.86"/><circle class="cls-3" cx="39.37" cy="52.85" r="0.96"/><circle class="cls-10" cx="159.45" cy="128.36" r="2.75"/><circle class="cls-3" cx="159.47" cy="128.33" r="1.42"/><circle class="cls-11" cx="121.07" cy="17.78" r="2.75"/><circle class="cls-3" cx="121.08" cy="17.74" r="1.42"/><circle class="cls-12" cx="152.76" cy="32.19" r="2.75"/><circle class="cls-3" cx="152.77" cy="32.16" r="1.42"/><circle class="cls-13" cx="118.87" cy="103.37" r="2.75"/><circle class="cls-3" cx="118.89" cy="103.34" r="1.42"/><circle class="cls-14" cx="156.72" cy="60.75" r="4.04"/><circle class="cls-3" cx="156.74" cy="60.7" r="2.08"/><circle class="cls-15" cx="142.04" cy="83.65" r="2.75"/><circle class="cls-3" cx="142.05" cy="83.62" r="1.42"/></g><path class="cls-16" d="M156,141.56c-2.1,10.47-15.82,12.8-30.69,5.2-.94-.48-1.86-1-2.75-1.53-.21-.12-.43-.26-.66-.38-1-.58-1.92-1.2-2.83-1.85l-.81-.6c-10.93-8-17.81-19.64-16.07-28.35,2.09-10.47,15.83-12.79,30.69-5.2S158.11,131.09,156,141.56Z" transform="translate(-46.9 -61.44)"/><path class="cls-17" d="M156,141.56c-2.1,10.47-15.82,12.8-30.69,5.2-.94-.48-1.86-1-2.75-1.53-.21-.12-.43-.26-.66-.38-1-.59-1.9-1.21-2.83-1.85l-.81-.6c-10.93-8-17.81-19.64-16.07-28.35,2.09-10.47,15.83-12.79,30.69-5.2S158.11,131.09,156,141.56Z" transform="translate(-46.9 -61.44)"/><path class="cls-18" d="M145.17,142.21c-1.46,7.31-11,8.94-21.44,3.63l-1.15-.61c-.21-.12-.43-.26-.66-.38-1-.58-1.92-1.2-2.83-1.85l-.81-.6c-7.32-5.59-11.89-13.46-10.69-19.41,1.37-6.89,10-8.74,19.64-4.48.58.25,1.18.54,1.78.84s1.15.61,1.72.94C140.18,125.79,146.56,135.3,145.17,142.21Z" transform="translate(-46.9 -61.44)"/><ellipse class="cls-19" cx="127.31" cy="127.95" rx="8.26" ry="14.06" transform="translate(-98.02 93.73) rotate(-53.82)"/><path class="cls-20" d="M176.89,113.49l-1.32-1.38C148.43,83.82,106,69.52,86.78,82.6a24.16,24.16,0,0,0-10.9,19.73c-.45,13.54,8.79,26.52,11.9,30.87a80.49,80.49,0,0,0,18.78,18.62A82.88,82.88,0,0,0,125.46,162a68.4,68.4,0,0,0,13.16,3.52,55.92,55.92,0,0,0,12.86.59h0c7.5-.71,13.29-4.26,15.9-10.66,5-12.32-3.47-31.13-19.36-44.95a49.09,49.09,0,0,1,4.28,2.83c3.29,2.54,14.69,11.58,20.28,26.13,1,2.51,4.76,12.63,2.22,20.63-5.14,16.27-33.91,15.71-55.92,6.13-19.77-8.6-40.81-27.42-49.31-49.73-1.5-3.91-5.8-16-3.23-27.88C70.69,68.55,93.85,65,93.55,64.41c0-.06-.3-.09-.76-.09-.24,0-.47,0-.7,0l-.57,0-.75,0-.81.09c-.15,0-.31,0-.46.06-16,1.6-27.74,10.35-30.73,25.34-5.34,26.77,19.25,63.28,54.93,81.5,17.52,9,34.46,11.86,47.78,9.3l.29-.06c4.44-.86,14.95-2.87,20.38-11.84a22.72,22.72,0,0,0,1.74-3.62c2.9-7.93.67-16.64-.12-19.53-.22-.85-.44-1.55-.6-2-7.26-23-32.59-42.44-53.55-47.83-1.39-.35-26.36-6.45-34.67,5.19a1.31,1.31,0,0,0-.17.24,15.57,15.57,0,0,0-2.32,4c-4.12,10.1.83,24.55,11.52,37A63.27,63.27,0,0,1,88.86,123.8c-2.12-4-6.12-11.73-5.48-20.17A19.16,19.16,0,0,1,91,89.43c6.26-5,13.89-4.74,21-4.49a60.62,60.62,0,0,1,18.17,3.66,96.72,96.72,0,0,1,9.58,4.1c6.26,2.85,33.65,18,47.16,42.53a64.63,64.63,0,0,1,3.13,6.49c1.26,3,4.52,11.1,4.34,20.36-.45,23.61-22.83,31.74-22.28,32.41s29.15-4.57,30.19-30C203.16,142.68,184.34,121.36,176.89,113.49Zm-74.68.56c2.09-10.47,15.83-12.79,30.69-5.2s25.21,22.24,23.12,32.71-15.82,12.8-30.69,5.2c-.94-.48-1.86-1-2.75-1.53-.21-.12-.43-.26-.66-.38-1-.58-1.92-1.2-2.83-1.85l-.81-.6C107.35,134.39,100.47,122.76,102.21,114.05Z" transform="translate(-46.9 -61.44)"/></svg>