<svg id="Layer_1" data-name="Layer 1" xmlns="http://www.w3.org/2000/svg" viewBox="0 0 152.34 152.34"><defs><style>.cls-1{fill:#f4e8dc;}.cls-2{fill:#c8bbb3;}.cls-3{fill:#fff;opacity:0.5;}.cls-4{opacity:0.15;}</style></defs><title>MoonIcon</title><path class="cls-1" d="M204.17,128a76.13,76.13,0,1,1-53.28-72.66A76.17,76.17,0,0,1,204.17,128Z" transform="translate(-51.83 -51.83)"/><path class="cls-2" d="M204.17,128A76.17,76.17,0,0,1,77.23,184.78,76.18,76.18,0,0,0,150.89,55.34,76.17,76.17,0,0,1,204.17,128Z" transform="translate(-51.83 -51.83)"/><circle class="cls-2" cx="62.21" cy="20.95" r="9.11"/><circle class="cls-2" cx="65" cy="91.86" r="6.61"/><circle class="cls-2" cx="24.45" cy="80.57" r="2.65"/><circle class="cls-2" cx="25.4" cy="105.35" r="7.78"/><circle class="cls-2" cx="71.61" cy="47.17" r="4.75"/><circle class="cls-2" cx="35.11" cy="48.94" r="13.31"/><circle class="cls-2" cx="106.05" cy="87.3" r="4.56"/><circle class="cls-2" cx="55.74" cy="131.02" r="2.65"/><circle class="cls-2" cx="96.83" cy="18.3" r="2.65"/><circle class="cls-2" cx="87.3" cy="125.72" r="10.94"/><circle class="cls-2" cx="125.76" cy="44.5" r="13.31"/><circle class="cls-2" cx="96.83" cy="64.42" r="6.61"/><path class="cls-3" d="M165.28,61.65a78.84,78.84,0,0,0-16-4.17,79.88,79.88,0,0,0-12-.89h-.77c-1.57,0-3.14.08-4.69.18A78.87,78.87,0,0,0,96.9,67.61l-.48.28c-.4.23-.79.47-1.17.71-.77.49-1.54,1-2.29,1.5a79.35,79.35,0,0,0-34,52.83c-.26,1.58-.49,3.2-.65,4.81h0a77.3,77.3,0,0,0-.43,8.24,79,79,0,0,0,9.91,38.43c-.49-.63-1-1.25-1.47-1.89a75.63,75.63,0,0,1-9.68-18l-.06-.15a75.53,75.53,0,0,1-4.73-24.51c0-.57,0-1.15,0-1.73v-.26c0-.46,0-.92,0-1.39q0-3,.33-5.91a76.05,76.05,0,0,1,72.6-68.67l1.17,0h2.19l1,0c1.5,0,2.93.12,4.32.22l1.15.1,1,.1.78.09c1.5.18,2.9.37,4.22.6l1.14.19c.81.13,1.59.28,2.3.43l.82.18h0l.25.06,1.5.36.81.21,1.73.48h0c.71.22,1.42.43,2.11.66s1.39.45,2.08.71c1.36.48,2.69,1,4,1.55l.18.08.23.1h0c.48.2.94.41,1.41.63l.25.11.33.15c.36.16.73.33,1.09.52l.35.16c.2.1.42.2.62.31l.71.38a.37.37,0,0,1,.14.07c.42.2.8.4,1.19.61l.54.3Z" transform="translate(-51.83 -51.83)"/><path class="cls-4" d="M90.72,194.35a78.84,78.84,0,0,0,16,4.17,79.88,79.88,0,0,0,12,.89h.77c1.57,0,3.14-.08,4.69-.18a78.87,78.87,0,0,0,34.93-10.84l.48-.28c.4-.23.79-.47,1.17-.71.77-.49,1.54-1,2.29-1.5a79.35,79.35,0,0,0,34-52.83c.26-1.58.49-3.2.65-4.81h0a77.3,77.3,0,0,0,.43-8.24,79,79,0,0,0-9.91-38.43c.49.63,1,1.25,1.47,1.89a75.63,75.63,0,0,1,9.68,18l.06.15a75.48,75.48,0,0,1,4.73,24.51c0,.57,0,1.15,0,1.73v.26c0,.46,0,.92,0,1.39q0,3-.33,5.91a76.05,76.05,0,0,1-72.6,68.67c-.39,0-.79,0-1.17,0h-2.19l-1,0c-1.5,0-2.93-.12-4.32-.22l-1.15-.1-1-.1-.78-.09c-1.5-.18-2.9-.38-4.22-.6l-1.14-.19c-.81-.13-1.59-.28-2.3-.43l-.82-.18h0l-.25-.06-1.5-.36-.81-.21-1.73-.48h0c-.71-.22-1.42-.43-2.11-.66s-1.39-.45-2.08-.71c-1.36-.48-2.69-1-4-1.55l-.18-.08-.23-.1h0c-.48-.2-.94-.41-1.41-.63l-.25-.11-.33-.15c-.36-.16-.73-.33-1.09-.52l-.35-.16c-.2-.1-.42-.2-.62-.31l-.71-.38a.37.37,0,0,1-.14-.07c-.42-.2-.8-.4-1.19-.61l-.54-.3Z" transform="translate(-51.83 -51.83)"/></svg>