<svg id="Layer_1" data-name="Layer 1" xmlns="http://www.w3.org/2000/svg" viewBox="0 0 152.65 152.37"><defs><style>.cls-1{fill:#2d55a6;}.cls-2{fill:#232659;}.cls-3{fill:#fff;}.cls-3,.cls-4{opacity:0.2;}.cls-5{fill:#212669;}</style></defs><title>NeptuneIcon</title><path class="cls-1" d="M204.48,128a76.13,76.13,0,0,1-76.17,76.17q-3,0-5.9-.23A76.13,76.13,0,0,1,71.73,179l-.47-.54a76,76,0,0,1-19.12-50.31V128a76,76,0,0,1,5.27-27.91q1-2.45,2.09-4.8a76.5,76.5,0,0,1,7.26-12.18q2.1-2.88,4.47-5.54A76.24,76.24,0,0,1,150.3,55.09h0l.89.28a75.68,75.68,0,0,1,17.48,8.06h0a76.49,76.49,0,0,1,28.6,32.28c.64,1.35,1.24,2.72,1.79,4.11A74.38,74.38,0,0,1,202,108.7,76,76,0,0,1,204.48,128Z" transform="translate(-51.83 -51.83)"/><path class="cls-2" d="M195.3,164.31a76.15,76.15,0,0,1-67,39.89q-3,0-5.9-.23A76.13,76.13,0,0,1,71.73,179l-.47-.54A76.38,76.38,0,0,1,61,163.71a25.32,25.32,0,0,1,7.76-4.83c19.68-8.11,40.6,10.1,73.05,13.63,10.07,1.1,10.84-.36,11-.73.5-1.6-4.34-4.65-7.79-6.33-13.69-6.68-25.62-1.67-27.36-5.87-1.32-3.18,4.56-8.28,5.11-8.77,2-1.72,4.84-3.42,12.6-4.84a80.84,80.84,0,0,1,19.45-1.18c6.75.43,12.78.83,20,3.67,4,1.56,11,4.3,16.67,10.66A35,35,0,0,1,195.3,164.31Z" transform="translate(-51.83 -51.83)"/><path class="cls-2" d="M185,77.14c-.4.43-.77.83-1.12,1.18C158.72,103.64,94,89.69,71.23,77.6A76.17,76.17,0,0,1,93.29,60.37c28.49-3.18,45.71,8.72,75.39,3.06h0A76.55,76.55,0,0,1,185,77.14Z" transform="translate(-51.83 -51.83)"/><path d="M206.11,99" transform="translate(-51.83 -51.83)"/><path class="cls-2" d="M188.38,128.42c-1.1,2.48-11.14,2.15-19.51-.43-9.19-2.83-9.74-6.32-16.44-9.13-15.14-6.35-38.57.42-52.24,9.68-5.86,4-8.89,7.8-16.15,9-7.6,1.19-14.14-1.44-21-4.2a70.43,70.43,0,0,1-10.91-5.12V128a76,76,0,0,1,5.27-27.91q1-2.45,2.09-4.8c5.92,1,13,2.79,20.55,4.19,15.36,2.85,26.46,3.1,45.53,2.92,24.92-.24,49.44-.47,71.71-6.72.64,1.35,1.24,2.72,1.79,4.11A74.38,74.38,0,0,1,202,108.7c-14.27,2.72-29.71-.78-31.1,3.22C169.24,116.69,190.09,124.58,188.38,128.42Z" transform="translate(-51.83 -51.83)"/><path class="cls-3" d="M165.28,61.65a78.84,78.84,0,0,0-16-4.17,79.88,79.88,0,0,0-12-.89h-.77c-1.57,0-3.14.08-4.69.18A78.87,78.87,0,0,0,96.9,67.61l-.48.28c-.4.23-.79.47-1.17.71-.77.49-1.54,1-2.29,1.5a79.35,79.35,0,0,0-34,52.83c-.26,1.58-.49,3.2-.65,4.81h0a77.3,77.3,0,0,0-.43,8.24,79,79,0,0,0,9.91,38.43c-.49-.63-1-1.25-1.47-1.89a75.63,75.63,0,0,1-9.68-18l-.06-.15a75.48,75.48,0,0,1-4.73-24.51c0-.57,0-1.15,0-1.73v-.26c0-.46,0-.92,0-1.39q0-3,.33-5.91a76.05,76.05,0,0,1,72.6-68.67l1.17,0h2.19l1,0c1.5,0,2.93.12,4.32.22l1.15.1,1,.1.78.09c1.5.18,2.9.38,4.22.6l1.14.19c.81.13,1.59.28,2.3.43l.82.18h0l.25.06,1.5.36.81.21,1.73.48h0c.71.22,1.42.43,2.11.66s1.39.45,2.08.71c1.36.48,2.69,1,4,1.55l.18.08.23.1h0c.48.2.94.41,1.41.63l.25.11.33.15c.36.16.73.33,1.09.52l.35.16c.2.1.42.2.62.31l.71.38a.37.37,0,0,1,.14.07c.42.2.8.4,1.19.61l.54.3Z" transform="translate(-51.83 -51.83)"/><path class="cls-4" d="M90.72,194.35a78.84,78.84,0,0,0,16,4.17,79.88,79.88,0,0,0,12,.89h.77c1.57,0,3.14-.08,4.69-.18a78.87,78.87,0,0,0,34.93-10.84l.48-.28c.4-.23.79-.47,1.17-.71.77-.49,1.54-1,2.29-1.5a79.35,79.35,0,0,0,34-52.83c.26-1.58.49-3.2.65-4.81h0a77.3,77.3,0,0,0,.43-8.24,79,79,0,0,0-9.91-38.43c.49.63,1,1.25,1.47,1.89a75.63,75.63,0,0,1,9.68,18l.06.15a75.48,75.48,0,0,1,4.73,24.51c0,.57,0,1.15,0,1.73v.26c0,.46,0,.92,0,1.39q0,3-.33,5.91a76.05,76.05,0,0,1-72.6,68.67c-.39,0-.79,0-1.17,0h-2.19l-1,0c-1.5,0-2.93-.12-4.32-.22l-1.15-.1-1-.1-.78-.09c-1.5-.18-2.9-.38-4.22-.6l-1.14-.19c-.81-.13-1.59-.28-2.3-.43l-.82-.18h0l-.25-.06-1.5-.36-.81-.21-1.73-.48h0c-.71-.22-1.42-.43-2.11-.66s-1.39-.45-2.08-.71c-1.36-.48-2.69-1-4-1.55l-.18-.08-.23-.1h0c-.48-.2-.94-.41-1.41-.63l-.25-.11-.33-.15c-.36-.16-.73-.33-1.09-.52l-.35-.16c-.2-.1-.42-.2-.62-.31l-.71-.38a.37.37,0,0,1-.14-.07c-.42-.2-.8-.4-1.19-.61l-.54-.3Z" transform="translate(-51.83 -51.83)"/><path class="cls-5" d="M154.6,130.59c.08,4.73-11,9.44-20.31,9.56-6.39.08-16-2-16.71-6.33a3.52,3.52,0,0,1,0-1.33c.85-4.18,8.4-9.09,15.54-10.26,8.89-1.44,19.08,2.62,21.08,6.92A3.33,3.33,0,0,1,154.6,130.59Z" transform="translate(-51.83 -51.83)"/></svg>