<svg id="Layer_1" data-name="Layer 1" xmlns="http://www.w3.org/2000/svg" viewBox="0 0 150 150"><defs><style>.cls-1{fill:#dac9ba;}.cls-2{fill:#f1f0e7;}.cls-3{fill:#bfaf9b;}.cls-4{fill:#5a1a0c;}.cls-5{fill:#deddd5;}.cls-6{fill:#360f07;}.cls-7,.cls-8{opacity:0.15;}.cls-8{fill:#fff;}</style></defs><title>PlutoIcon</title><path class="cls-1" d="M203,128q0,3.65-.35,7.2a75,75,0,0,1-71.6,67.73c-1,0-2,.07-3.05.07l-1.28,0c-1.48,0-2.9-.12-4.26-.22l-1.13-.1-1-.1-.76-.09c-1.48-.17-2.87-.36-4.17-.58l-1.12-.19c-.8-.13-1.56-.28-2.27-.43l-.8-.17h0l-.25-.06c-.5-.11-1-.24-1.49-.36l-.6-.16-.19-.05-1.71-.47h0c-.7-.21-1.39-.42-2.08-.65s-1.37-.45-2-.7c-1.34-.47-2.65-1-3.94-1.53l-.17-.08-.23-.1h0c-.47-.19-.93-.4-1.39-.61l-.24-.11-.33-.15c-.36-.16-.72-.33-1.08-.52l-.34-.16-.61-.3c-.24-.12-.48-.24-.71-.37a.37.37,0,0,1-.14-.07L92.41,194l-.53-.29-.77-.43-.26-.15-1.38-.8-1.19-.74-.22-.14c-.31-.19-.63-.4-.94-.61l-.14-.09c-.16-.09-.31-.2-.47-.31-.33-.21-.66-.43-1-.66q-2.59-1.77-5-3.77a3.82,3.82,0,0,1,.19-.74c3.7-10,53.7,5.68,60.15-6.89,1.92-3.73-.39-9.18-1.33-11.41-1.71-4-5-7.88-8.86-12.57,0,0,0,0,0,0a31,31,0,0,1-2.31-2.83s0,0,0,0l0,0c-.06-.08-.28-.37-.57-.83-9.11-8.49-15.41-12.64-26.13-22C82.89,112.36,79.86,106,78.72,103.33l-.2-.47-.19-.45s0-.11-.07-.17-.16-.41-.26-.64l0-.09c-.06-.16-.13-.32-.19-.49-.2-.52-.42-1.09-.63-1.72-.07-.21-.15-.43-.22-.65-.16-.48-.32-1-.47-1.51-.08-.26-.16-.52-.23-.79a41.53,41.53,0,0,1-1.39-7.57q0-.45-.06-.93c0-.24,0-.49,0-.73A24.89,24.89,0,0,1,77.3,74.78a22.1,22.1,0,0,1,4-5.51,75,75,0,0,1,94.92,1.32s0,0,0,0A75.07,75.07,0,0,1,185,79.26c.46.54.92,1.09,1.36,1.64.81,1,1.59,2,2.34,3a74.53,74.53,0,0,1,9.55,17.77l.06.15A74.73,74.73,0,0,1,203,128Z" transform="translate(-53 -53)"/><path class="cls-2" d="M203,128c-.12,2.54-.23,4.93-.35,7.2a75,75,0,0,1-71.6,67.73c-1,0-2,.07-3.05.07l-1.28,0c-1.48,0-2.9-.12-4.26-.22l-1.13-.1-1-.1-.76-.09c-1.48-.17-2.87-.36-4.17-.58l-1.12-.19c-.8-.13-1.56-.28-2.27-.43l-.8-.17h0l-.25-.06a.77.77,0,0,0-.25,0,1.13,1.13,0,0,1-.55-.06,3.88,3.88,0,0,0-.69-.27l-.6-.16-.19-.05-1.71-.47h0c-.7-.21-1.39-.42-2.08-.65s-1.37-.45-2-.7c-1.34-.47-2.65-1-3.94-1.53l-.17-.08-.23-.1h0c-.47-.19-.93-.4-1.39-.61l-.24-.11-.33-.15c-.36-.16-.72-.33-1.08-.52l-.34-.16-.61-.3c-.24-.12-.48-.24-.71-.37a.37.37,0,0,1-.14-.07L92.41,194l-.53-.29-.77-.43-.26-.15-1.38-.8-1.19-.74-.22-.14c-.31-.19-.63-.4-.94-.61l-.14-.09c-.16-.09-.31-.2-.47-.31-.33-.21-.66-.43-1-.66q-2.59-1.77-5-3.77a3.82,3.82,0,0,1,.19-.74c3.7-10,53.7,5.68,60.15-6.89,1.92-3.73-.39-9.18-1.33-11.41-1.71-4-5-7.88-8.86-12.57,0,0,0,0,0,0-.75-.91-1.52-1.85-2.31-2.83,0,0,0,0,0,0l0,0c-.06-.08-.28-.37-.57-.83a14.84,14.84,0,0,1-1.68-3.63,26.18,26.18,0,0,1,4.44-23.7c7.43-8.62,18.91-8.18,22.73-7.81l1,.11c14.08,1.7,17.64,7.63,23.7,6.22,4.59-1.07,7.12-5.53,7.85-6.82,2.65-4.67,1.91-9.51.74-17.18a68.73,68.73,0,0,0-3-11.85,78.18,78.18,0,0,0-4.38-10.32q-1.27-2.49-2.86-5.11A75.07,75.07,0,0,1,185,79.26c.46.54.92,1.09,1.36,1.64.81,1,1.59,2,2.34,3a74.53,74.53,0,0,1,9.55,17.77l.06.15A74.73,74.73,0,0,1,203,128Z" transform="translate(-53 -53)"/><path class="cls-3" d="M98.85,197.12c1.29.55,2.61,1.06,3.94,1.53C101.45,198.18,100.14,197.67,98.85,197.12Z" transform="translate(-53 -53)"/><path class="cls-3" d="M132.26,156.15l-1.6-1.72s0,0,0,0a31,31,0,0,1-2.31-2.83C129.54,152.92,130.82,154.42,132.26,156.15Z" transform="translate(-53 -53)"/><path class="cls-3" d="M84.63,182.7" transform="translate(-53 -53)"/><path class="cls-4" d="M140.85,178.41C134.4,191,84.4,175.35,80.7,185.3a3.82,3.82,0,0,0-.19.74A75.14,75.14,0,0,1,66,170.16c-.67-1-1.31-2-1.93-3A74.56,74.56,0,0,1,53,128a75.42,75.42,0,0,1,1.16-13.19A74.44,74.44,0,0,1,64.27,88.45q1.4-2.25,3-4.38a75.37,75.37,0,0,1,14.13-14.8,22.1,22.1,0,0,0-4,5.51c-5.91,11.45,0,25.3,1.42,28.55,1.14,2.65,4.17,9,22.87,25.37,10.72,9.36,17,13.51,26.13,22,.29.46.51.75.57.83l0,0s0,0,0,0a31,31,0,0,0,2.31,2.83s0,0,0,0c3.87,4.69,7.15,8.55,8.86,12.57C140.46,169.23,142.77,174.68,140.85,178.41Z" transform="translate(-53 -53)"/><path class="cls-5" d="M203,128q0,3.65-.35,7.2a75,75,0,0,1-71.6,67.73c-1,0-2,.07-3.05.07l-1.28,0c-1.48,0-2.9-.12-4.26-.22l-1.13-.1-1-.1-.76-.09c-1.48-.17-2.87-.36-4.17-.58l-1.12-.19c-.8-.13-1.56-.28-2.27-.43l-.8-.17h0l-.25-.06a.77.77,0,0,0-.25,0,1.13,1.13,0,0,1-.55-.06,3.88,3.88,0,0,0-.69-.27l-.6-.16-.19-.05-1.71-.47h0c-.7-.21-1.39-.42-2.08-.65s-1.37-.45-2-.7c-1.34-.47-2.65-1-3.94-1.53l-.17-.08-.23-.1c2.37,0,5.24.23,8.46.49,3.79.31,8.06.69,12.56.88,11.21.46,23.81-.28,33.83-6.2,1.89-1.12,4.94-3,6.87-5.65a9.41,9.41,0,0,0,1.38-2.67,7.76,7.76,0,0,0,.34-1.46c.51-3.94-2.21-6.05-7.11-18.37a30,30,0,0,1-2.08-7.4c-.43-3.09-1-7.4,1.19-11.12a13.09,13.09,0,0,1,7.11-5.33c9.87-3.41,15.84,5.67,24.3,2.52,4.84-1.8,7.35-6.44,9.48-10.37.1-.19.21-.39.3-.58a29.68,29.68,0,0,0,1.53-3.55h0a43.34,43.34,0,0,0,2-12.75,97.65,97.65,0,0,0-.37-13.65l.06.15A74.73,74.73,0,0,1,203,128Z" transform="translate(-53 -53)"/><path class="cls-6" d="M111.81,160a8.65,8.65,0,0,1-5.92,6.81c-5.29,1.43-8.34-5.66-15-5.11-4.6.39-5.36,4-11.74,6.67A26.68,26.68,0,0,1,66,170.16c-.67-1-1.31-2-1.93-3A74.56,74.56,0,0,1,53,128a75.42,75.42,0,0,1,1.16-13.19A74.44,74.44,0,0,1,64.27,88.45q1.4-2.25,3-4.38c-3.8,18.31-.25,29.17,3.78,35.74,2.84,4.64,6.91,8.32,15.11,15.63C102.29,149.87,112.56,153.56,111.81,160Z" transform="translate(-53 -53)"/><path class="cls-4" d="M101.92,112.31c-2.4.37-4.57-2.38-8.09-6.83a29.46,29.46,0,0,1-5.72-12.43c-.62-3.2-.18-4,.21-4.41,1.83-1.85,7.17.77,9.19,1.77,4.23,2.08,7.6,3.74,9.11,7.43C109,103.62,105.69,111.74,101.92,112.31Z" transform="translate(-53 -53)"/><path class="cls-4" d="M112.92,123.9c-1.08.34-2-.47-3.35-1.79a6.93,6.93,0,0,1-2.1-4.06c-.16-1.12.07-1.45.25-1.63.89-.84,3.17-.35,4-.16,1.81.4,3.24.71,3.78,1.93C116.37,120.1,114.62,123.36,112.92,123.9Z" transform="translate(-53 -53)"/><path class="cls-2" d="M179.39,99.45c1.38,5.21-.11,12.21-3.52,13.08-2.91.75-6.82-3-8.19-6.73-.93-2.49-.58-4.65.08-8.76.71-4.4,1.07-6.6,2.44-7.11C172.7,89,177.9,93.79,179.39,99.45Z" transform="translate(-53 -53)"/><path class="cls-7" d="M203,128q0,3.65-.35,7.2a75,75,0,0,1-71.6,67.73c-1,0-2,.07-3.05.07l-1.28,0c-1.48,0-2.9-.12-4.26-.22l-1.13-.1-1-.1-.76-.09c-1.48-.17-2.87-.36-4.17-.58l-1.12-.19c-.8-.13-1.56-.28-2.27-.43l-.8-.17h0l-.25-.06a.77.77,0,0,0-.25,0,1.13,1.13,0,0,1-.55-.06,3.88,3.88,0,0,0-.69-.27l-.6-.16-.19-.05-1.71-.47h0c-.7-.21-1.39-.42-2.08-.65s-1.37-.45-2-.7c-1.34-.47-2.65-1-3.94-1.53l-.17-.08-.23-.1h0c-.47-.19-.93-.4-1.39-.61l-.24-.11-.33-.15c-.36-.16-.72-.33-1.08-.52l-.34-.16-.61-.3c-.24-.12-.48-.24-.71-.37a.37.37,0,0,1-.14-.07L92.41,194l-.53-.29-.77-.43a77.9,77.9,0,0,0,15.8,4.12,79.17,79.17,0,0,0,11.8.88h.76a78,78,0,0,0,40.7-11.85c.77-.48,1.52-1,2.27-1.48A78.27,78.27,0,0,0,196,132.87c.26-1.56.48-3.15.64-4.74h0a78.48,78.48,0,0,0-9.35-46c.49.61,1,1.23,1.45,1.86a74.53,74.53,0,0,1,9.55,17.77l.06.15A74.73,74.73,0,0,1,203,128Z" transform="translate(-53 -53)"/><path class="cls-8" d="M53,128q0-3.65.35-7.2A75,75,0,0,1,125,53.07c1,0,2-.07,3-.07l1.28,0c1.48,0,2.9.12,4.26.22l1.13.1,1,.1.76.09c1.48.17,2.87.36,4.17.58l1.12.19c.8.13,1.56.28,2.27.43l.8.17h0l.25.06,1.49.36.79.21,1.71.47h0c.7.21,1.39.42,2.08.65s1.37.45,2.05.7c1.34.47,2.65,1,3.94,1.53l.17.08.23.1h0c.47.19.93.4,1.39.61l.24.11.33.15c.36.16.72.33,1.08.52l.34.16.61.3c.24.12.48.24.71.37a.37.37,0,0,1,.14.07l1.17.61.53.29.77.43a77.9,77.9,0,0,0-15.8-4.12,79.17,79.17,0,0,0-11.8-.88h-.76a78,78,0,0,0-40.7,11.85c-.77.48-1.52,1-2.27,1.48A78.27,78.27,0,0,0,60,123.13c-.26,1.56-.48,3.15-.64,4.74h0a78.48,78.48,0,0,0,9.35,46c-.49-.61-1-1.23-1.45-1.86a74.53,74.53,0,0,1-9.55-17.77l-.06-.15A74.73,74.73,0,0,1,53,128Z" transform="translate(-53 -53)"/></svg>