<svg id="Layer_1" data-name="Layer 1" xmlns="http://www.w3.org/2000/svg" viewBox="0 0 242.1 152.34"><defs><style>.cls-1{fill:#f4c18a;}.cls-2{fill:#cf9e67;}.cls-3{fill:#efa758;}.cls-4{fill:#b88c5b;}.cls-5{fill:#fff;}.cls-5,.cls-6{opacity:0.2;}.cls-7{fill:#8c6b45;}</style></defs><title>SaturnIcon</title><path class="cls-1" d="M196.79,95.28c-37.16,11.08-106.65,6.52-139.18,3.54.5-1.19,1-2.37,1.58-3.53a76.5,76.5,0,0,1,7.26-12.18c1.31-1.8,2.7-3.54,4.17-5.2,43.3,10,90.51,9.12,120.21,7,.63.92,1.25,1.86,1.84,2.81,1.13,1.81,2.19,3.67,3.16,5.58Q196.33,94.31,196.79,95.28Z" transform="translate(-7.56 -51.83)"/><path class="cls-1" d="M70.62,77.91l.3-.34A76.17,76.17,0,0,1,93,60.34a76.37,76.37,0,0,1,57-5.28h0l.89.28a75.68,75.68,0,0,1,17.48,8.06h0l.49.32a76.41,76.41,0,0,1,22,21.22C161.13,87,113.92,87.88,70.62,77.91Z" transform="translate(-7.56 -51.83)"/><path class="cls-1" d="M204.17,128c0,2.44-.11,4.86-.34,7.24-.2,2.15-.5,4.27-.87,6.36a75.85,75.85,0,0,1-3.12,11.78c-.36,1-.75,2-1.15,3a76.17,76.17,0,0,1-3.7,7.86q-1.69,3.12-3.66,6.05c-.58.86-1.17,1.71-1.8,2.55a76.13,76.13,0,0,1-26.79,22.92c-1.86,1-3.77,1.84-5.71,2.64a76,76,0,0,1-29,5.73q-3,0-5.9-.23a75.77,75.77,0,0,1-10.61-1.57q-3.1-.69-6.11-1.62A75.6,75.6,0,0,1,81.6,188.39c-.8-.6-1.58-1.23-2.35-1.87s-1.36-1.15-2-1.74A75.57,75.57,0,0,1,71.42,179l-.47-.54c-1.32-1.5-2.59-3-3.79-4.64a76.25,76.25,0,0,1-6.46-10.13q-1.19-2.24-2.22-4.55c-.23-.5-.45-1-.66-1.49-.7-1.64-1.33-3.32-1.91-5A74.9,74.9,0,0,1,52,133.3c-.11-1.45-.17-2.92-.18-4.4,0-.25,0-.51,0-.76V128c0-2.13.09-4.25.27-6.34a75.52,75.52,0,0,1,5-21.57l.51-1.27c32.53,3,102,7.54,139.18-3.54l.19.4c.64,1.35,1.24,2.72,1.79,4.11a75.69,75.69,0,0,1,4.86,19.14c.25,2,.41,4.07.48,6.13Q204.17,126.53,204.17,128Z" transform="translate(-7.56 -51.83)"/><path class="cls-2" d="M189.53,172.88a76.13,76.13,0,0,1-26.79,22.92c-1.86,1-3.77,1.84-5.71,2.64a296.08,296.08,0,0,0-45.54,3.93q-3.1-.69-6.11-1.62A75.6,75.6,0,0,1,81.6,188.39C126.75,173.16,164.18,171.25,189.53,172.88Z" transform="translate(-7.56 -51.83)"/><path class="cls-3" d="M190.83,84.94c-29.7,2.09-76.91,2.94-120.21-7l.3-.34A76.17,76.17,0,0,1,93,60.34a75.36,75.36,0,0,1,12.86-5.24c18,4.27,41.37,8.55,63,8.62a76.41,76.41,0,0,1,22,21.22Z" transform="translate(-7.56 -51.83)"/><path class="cls-2" d="M203.63,118.93l-1.57.67A365.34,365.34,0,0,1,167.17,132c-7.8,2.37-16.09,4.68-24.74,6.86-31.61.85-65.82,0-90.41-5.54-.11-1.45-.17-2.92-.18-4.4,0-.25,0-.51,0-.76V128c0-2.13.09-4.25.27-6.34a75.52,75.52,0,0,1,5-21.57l.51-1.27c32.53,3,102,7.54,139.18-3.54l.19.4c.64,1.35,1.24,2.72,1.79,4.11a75.69,75.69,0,0,1,4.86,19.14Z" transform="translate(-7.56 -51.83)"/><path class="cls-2" d="M204.17,128c0,2.44-.11,4.86-.34,7.24-10.24.89-23.29,1.89-37.71,2.65-7.58.4-15.55.73-23.69,1,8.65-2.18,16.94-4.49,24.74-6.86a365.34,365.34,0,0,0,34.89-12.38l1.57-.67c.25,2,.41,4.07.48,6.13Q204.17,126.53,204.17,128Z" transform="translate(-7.56 -51.83)"/><path class="cls-3" d="M203,141.6a75.85,75.85,0,0,1-3.12,11.78c-.36,1-.75,2-1.15,3-37,1.62-92.79,5.93-131.53,17.39a76.25,76.25,0,0,1-6.46-10.13c-1-2-2-4-2.88-6C84.24,150.71,129.55,143,203,141.6Z" transform="translate(-7.56 -51.83)"/><ellipse class="cls-4" cx="159.09" cy="109.38" rx="13.87" ry="4.68" transform="translate(-19.45 -32.11) rotate(-6.84)"/><ellipse class="cls-4" cx="182.33" cy="106.59" rx="4.62" ry="2.96" transform="translate(-18.96 -29.36) rotate(-6.84)"/><ellipse class="cls-4" cx="82.68" cy="129.56" rx="3.95" ry="10" transform="translate(-60.61 149.82) rotate(-85.43)"/><ellipse class="cls-4" cx="64.85" cy="128" rx="2.22" ry="2.49" transform="translate(-75.47 130.61) rotate(-85.43)"/><path class="cls-5" d="M165.28,61.65a78.84,78.84,0,0,0-16-4.17,79.88,79.88,0,0,0-12-.89h-.77c-1.57,0-3.14.08-4.69.18A78.87,78.87,0,0,0,96.9,67.61l-.48.28c-.4.23-.79.47-1.17.71-.77.49-1.54,1-2.29,1.5a79.35,79.35,0,0,0-34,52.83c-.26,1.58-.49,3.2-.65,4.81h0a77.3,77.3,0,0,0-.43,8.24,79,79,0,0,0,9.91,38.43c-.49-.63-1-1.25-1.47-1.89a75.63,75.63,0,0,1-9.68-18l-.06-.15a75.48,75.48,0,0,1-4.73-24.51c0-.57,0-1.15,0-1.73v-.26c0-.46,0-.92,0-1.39q0-3,.33-5.91a76.05,76.05,0,0,1,72.6-68.67l1.17,0h2.19l1,0c1.5,0,2.93.12,4.32.22l1.15.1,1,.1.78.09c1.5.18,2.9.38,4.22.6l1.14.19c.81.13,1.59.28,2.3.43l.82.18h0l.25.06,1.5.36.81.21,1.73.48h0c.71.22,1.42.43,2.11.66s1.39.45,2.08.71c1.36.48,2.69,1,4,1.55l.18.08.23.1h0c.48.2.94.41,1.41.63l.25.11.33.15c.36.16.73.33,1.09.52l.35.16c.2.1.42.2.62.31l.71.38a.37.37,0,0,1,.14.07c.42.2.8.4,1.19.61l.54.3Z" transform="translate(-7.56 -51.83)"/><path class="cls-6" d="M90.73,194.18a79.71,79.71,0,0,0,28,5.07h.77c1.57,0,3.14-.08,4.69-.18a79.09,79.09,0,0,0,34.93-10.84c.16-.09.32-.2.49-.29l1.16-.71c.78-.48,1.54-1,2.29-1.5a79.33,79.33,0,0,0,34-52.83c.26-1.58.5-3.2.66-4.81h0a79.84,79.84,0,0,0,.42-8.23,79,79,0,0,0-9.91-38.44c.5.63,1,1.25,1.47,1.9a75.83,75.83,0,0,1,9.69,18l.06.15a75.68,75.68,0,0,1,4.72,24.5c0,.57,0,1.16,0,1.73V128c0,.47,0,.93,0,1.39q0,3-.33,5.91a76,76,0,0,1-72.6,68.67c-.38,0-.79,0-1.17,0h-2.19l-1,0c-1.49,0-2.93-.12-4.32-.22l-1.15-.1-1-.1-.78-.09c-1.49-.18-2.9-.37-4.22-.59l-1.14-.19c-.81-.13-1.58-.29-2.3-.44l-.81-.18h0l-.25-.06-1.51-.36-.81-.21-1.73-.47h0l-2.11-.67c-.7-.22-1.39-.45-2.08-.71-1.36-.47-2.68-1-4-1.55l-.17-.08-.23-.1h0c-.49-.19-1-.4-1.42-.62l-.24-.11-.34-.16c-.36-.16-.73-.33-1.09-.52l-.34-.16c-.2-.1-.43-.2-.63-.31s-.48-.24-.71-.37a.37.37,0,0,1-.14-.07c-.41-.2-.8-.41-1.19-.62l-.54-.3Z" transform="translate(-7.56 -51.83)"/><path class="cls-7" d="M204.11,125.06l-1.82.7c-10.74,4.13-22.94,8.23-36.17,12.13-7.94,2.33-16.26,4.59-24.86,6.74q-3.52.88-7.13,1.74c-8.49,2-16.83,3.82-24.9,5.39A479.73,479.73,0,0,1,60,159l-1.53.13c-29.28,2.47-49,.18-50.79-7.23-1.82-7.67,15.78-19,44.41-30.24-.18,2.09-.27,4.21-.27,6.34v.14c0,.25,0,.51,0,.76-14.67,6.83-23,13.19-22,17.73s10.75,6.33,26,6l1.23,0a291.11,291.11,0,0,0,33.31-3.23c13.5-2,28.48-4.88,44.14-8.6q2.86-.67,5.68-1.38l2.16-.54c8.65-2.18,16.94-4.49,24.74-6.86a365.34,365.34,0,0,0,34.89-12.38l1.57-.67c17.8-7.69,28.25-15,27.05-20s-14.55-7-34.85-5.58c-1-1.91-2-3.77-3.16-5.58,32.61-3.35,55-1.27,56.87,6.68C251.36,102.14,233.34,113.65,204.11,125.06Z" transform="translate(-7.56 -51.83)"/></svg>