<svg id="Layer_1" data-name="Layer 1" xmlns="http://www.w3.org/2000/svg" viewBox="0 0 194.65 194.65"><defs><style>.cls-1,.cls-11{fill:#ffd400;}.cls-1,.cls-10,.cls-9{opacity:0.2;}.cls-2{fill:#ffbc15;}.cls-3,.cls-4,.cls-5,.cls-6,.cls-7,.cls-8{fill:#f28e13;}.cls-4{opacity:0.8;}.cls-5{opacity:0.5;}.cls-6{opacity:0.4;}.cls-7{opacity:0.6;}.cls-11,.cls-8{opacity:0.3;}.cls-9{fill:#fff;}</style></defs><title>SunIcon</title><circle class="cls-1" cx="97.33" cy="97.33" r="97.33"/><path d="M189.23,132.13a31.72,31.72,0,0,1-2,6.6C188,136.57,188.67,134.38,189.23,132.13Z" transform="translate(-29.82 -30.67)"/><path class="cls-2" d="M189.23,132.13c-.56,2.25-1.23,4.44-2,6.6a.24.24,0,0,1,0,.07v0s-13.47-7.75-14.36-18.09c-.86-10-28.14-12.33-11.25,9.63.55.71,1.13,1.44,1.77,2.2,14,16.59,13.25,24.94,11.39,28.56a6,6,0,0,1-1.95,2.34h0l-3.67-.52c-72.62-9.83-57.48,14.32-49.61,12.86s15.11,9.78,6.4,13.07a84.46,84.46,0,0,1-21.82-.17h0c-34-5.62-19.53-37.27-27.76-53s-24.73,6.15-24.73,6.15a76.74,76.74,0,0,1-1.22-12c0-.54,0-1.08,0-1.63V128a76,76,0,0,1,5.27-27.91q1-2.45,2.09-4.8A76.5,76.5,0,0,1,65,83.14c.24-.34.49-.67.75-1,1.17-1.56,2.42-3.08,3.72-4.54a76.24,76.24,0,0,1,79.07-22.51h0l.89.28a75.8,75.8,0,0,1,7.87,3,73.6,73.6,0,0,1,8.05,4.14l.06,0c26,17.37,6,33,7.76,40.11s2.66.3,11.85,10.77C190.26,119.39,190.22,126.85,189.23,132.13Z" transform="translate(-29.82 -30.67)"/><path class="cls-3" d="M202.69,128c0,.74,0,1.47,0,2.2a75.7,75.7,0,0,1-4.29,23.18c-.09.26-.19.52-.29.78a76.25,76.25,0,0,1-71.55,50q-3,0-5.9-.23a75.56,75.56,0,0,1-18.93-3.91A72.56,72.56,0,0,1,94.06,197,76.32,76.32,0,0,1,69.94,179l-.47-.54c-1.52-1.71-3-3.5-4.32-5.34s-2.71-3.87-3.93-5.9l-.36-.61c-.57-1-1.12-1.93-1.64-2.92-.65-1.22-1.27-2.46-1.85-3.72a75.09,75.09,0,0,1-5.77-18.17s16.51-21.93,24.73-6.15-6.26,47.42,27.76,53h0a84.46,84.46,0,0,0,21.82.17c8.71-3.29,1.6-14.55-6.4-13.07s-23-22.69,49.61-12.86l3.67.52h0a6,6,0,0,0,1.95-2.34c1.86-3.62,2.57-12-11.39-28.56-.64-.76-1.22-1.49-1.77-2.2-16.89-22,10.39-19.64,11.25-9.63.89,10.34,14.36,18.09,14.36,18.09v0a.24.24,0,0,0,0-.07,31.72,31.72,0,0,0,2-6.6c1-5.28,1-12.74-4.23-18.73-9.19-10.47-10.07-3.66-11.85-10.77s18.26-22.74-7.76-40.11c.5.29,1,.6,1.5.91h0a75.92,75.92,0,0,1,14.15,11.44c.74.74,1.45,1.5,2.14,2.27A76,76,0,0,1,195.5,95.71c.23.49.46,1,.67,1.47.4.87.77,1.75,1.12,2.64a74.38,74.38,0,0,1,2.92,8.88A76,76,0,0,1,202.69,128Z" transform="translate(-29.82 -30.67)"/><path class="cls-4" d="M99.88,151.71a9.61,9.61,0,0,1,5.11,5.63c2.64,6.73-1.5,16-5.11,16.15-5,.27-12.19-16.28-7.78-20.89C93.81,150.82,97.36,150.72,99.88,151.71Z" transform="translate(-29.82 -30.67)"/><path class="cls-5" d="M88.21,138.63A6.58,6.58,0,0,1,84,135.49c-2.64-4.18-1-10.93,1.37-11.53,3.31-.81,10.3,9.4,7.92,13.07C92.41,138.45,90,139,88.21,138.63Z" transform="translate(-29.82 -30.67)"/><path class="cls-6" d="M126.18,130.23c.21.08,4.61,1.84,5.11,5.63.62,4.65-5,9.41-9,8.55-4.62-1-7.23-9.9-3.93-13.29C120.29,129.18,123.83,129.33,126.18,130.23Z" transform="translate(-29.82 -30.67)"/><path class="cls-4" d="M149.28,141.06a9.59,9.59,0,0,1,7.58-.64c6.94,2,11.76,10.89,9.71,13.88-2.81,4.09-20.34-.23-21.31-6.53C144.88,145.33,147,142.45,149.28,141.06Z" transform="translate(-29.82 -30.67)"/><path class="cls-5" d="M147.82,91.87a9.55,9.55,0,0,1,.78-7.57c3.23-6.46,12.86-9.55,15.42-7,3.52,3.52-4,20-10.34,19.75C151.21,97,148.76,94.4,147.82,91.87Z" transform="translate(-29.82 -30.67)"/><path class="cls-7" d="M145.92,116c-.21.26-4.56,5.53-10,4.56-6.66-1.18-10.74-11-7.83-16.06,3.42-5.91,16.78-5.61,20,.41C149.94,108.36,148.19,113.17,145.92,116Z" transform="translate(-29.82 -30.67)"/><path class="cls-8" d="M120.61,82.62a4.72,4.72,0,0,1,1.69-3.37c2.63-2.43,7.65-2.17,8.38-.53,1,2.25-5.35,8.56-8.27,7.34C121.28,85.59,120.6,84,120.61,82.62Z" transform="translate(-29.82 -30.67)"/><path class="cls-6" d="M106.92,106.28a4.85,4.85,0,0,1,3.84.35c3.29,1.61,4.91,6.48,3.62,7.79-1.76,1.8-10.14-1.91-10.07-5.14C104.34,108,105.64,106.77,106.92,106.28Z" transform="translate(-29.82 -30.67)"/><path class="cls-9" d="M163.8,61.65a78.84,78.84,0,0,0-16-4.17,79.88,79.88,0,0,0-12-.89H135c-1.57,0-3.14.08-4.69.18A78.87,78.87,0,0,0,95.42,67.61l-.48.28c-.4.23-.79.47-1.17.71-.77.49-1.54,1-2.29,1.5a79.35,79.35,0,0,0-34,52.83c-.26,1.58-.49,3.2-.65,4.81h0A77.3,77.3,0,0,0,56.4,136a79,79,0,0,0,9.91,38.43c-.49-.63-1-1.25-1.47-1.89a75.63,75.63,0,0,1-9.68-18l-.06-.15a75.48,75.48,0,0,1-4.73-24.51c0-.57,0-1.15,0-1.73v-.26c0-.46,0-.92,0-1.39q0-3,.33-5.91A76.05,76.05,0,0,1,123.3,51.9l1.17,0h2.19l1,0c1.5,0,2.93.12,4.32.22l1.15.1,1,.1.78.09c1.5.18,2.9.38,4.22.6l1.14.19c.81.13,1.59.28,2.3.43l.82.18h0l.25.06,1.5.36.81.21,1.73.48h0c.71.22,1.42.43,2.11.66s1.39.45,2.08.71c1.36.48,2.69,1,4,1.55l.18.08.23.1h0c.48.2.94.41,1.41.63l.25.11.33.15c.36.16.73.33,1.09.52l.35.16.62.31.71.38a.37.37,0,0,1,.14.07c.42.2.8.4,1.19.61l.54.3Z" transform="translate(-29.82 -30.67)"/><path class="cls-10" d="M89.24,194.35a78.84,78.84,0,0,0,16,4.17,79.88,79.88,0,0,0,12,.89H118c1.57,0,3.14-.08,4.69-.18a78.87,78.87,0,0,0,34.93-10.84l.48-.28c.4-.23.79-.47,1.17-.71.77-.49,1.54-1,2.29-1.5a79.35,79.35,0,0,0,34-52.83c.26-1.58.49-3.2.65-4.81h0a77.3,77.3,0,0,0,.43-8.24,79,79,0,0,0-9.91-38.43c.49.63,1,1.25,1.47,1.89a75.63,75.63,0,0,1,9.68,18l.06.15a75.48,75.48,0,0,1,4.73,24.51c0,.57,0,1.15,0,1.73v.26c0,.46,0,.92,0,1.39q0,3-.33,5.91a76.05,76.05,0,0,1-72.6,68.67c-.39,0-.79,0-1.17,0h-2.19l-1,0c-1.5,0-2.93-.12-4.32-.22l-1.15-.1-1-.1-.78-.09c-1.5-.18-2.9-.38-4.22-.6l-1.14-.19c-.81-.13-1.59-.28-2.3-.43l-.82-.18h0l-.25-.06-1.5-.36-.81-.21-1.73-.48h0c-.71-.22-1.42-.43-2.11-.66s-1.39-.45-2.08-.71c-1.36-.48-2.69-1-4-1.55l-.18-.08-.23-.1h0c-.48-.2-.94-.41-1.41-.63l-.25-.11-.33-.15c-.36-.16-.73-.33-1.09-.52l-.35-.16c-.2-.1-.42-.2-.62-.31l-.71-.38a.37.37,0,0,1-.14-.07c-.42-.2-.8-.4-1.19-.61l-.54-.3Z" transform="translate(-29.82 -30.67)"/><circle class="cls-11" cx="96.43" cy="97.33" r="85.48"/></svg>