<svg id="Layer_1" data-name="Layer 1" xmlns="http://www.w3.org/2000/svg" viewBox="0 0 152.35 152.34"><defs><style>.cls-1{fill:#d8d7d9;}.cls-2{fill:#6f6673;}.cls-3{fill:#9cb6d9;}.cls-4{fill:#fff;}.cls-4,.cls-5{opacity:0.2;}</style></defs><title>TritonIcon</title><path class="cls-1" d="M123.47,204c-.6,0-1.19-.09-1.78-.15C122.29,203.92,122.87,204,123.47,204Z" transform="translate(-51.82 -51.83)"/><path class="cls-1" d="M108.45,201.6a91.82,91.82,0,0,0,13.24,2.27A73.12,73.12,0,0,1,108.45,201.6Z" transform="translate(-51.82 -51.83)"/><path class="cls-1" d="M107.75,201.42c.23.06.47.11.7.18Z" transform="translate(-51.82 -51.83)"/><path class="cls-1" d="M81.92,188.6q1.1.84,2.28,1.68C83.43,189.74,82.67,189.19,81.92,188.6Z" transform="translate(-51.82 -51.83)"/><path class="cls-1" d="M92.23,195.24c1,.54,2,1.07,3.12,1.58-1.07-.5-2.11-1-3.14-1.58-1.3-.69-2.58-1.42-3.83-2.18-.54-.33-1-.68-1.58-1Q89.32,193.68,92.23,195.24Z" transform="translate(-51.82 -51.83)"/><path class="cls-1" d="M162.6,134.38c-.06.45-.12.9-.18,1.33a.28.28,0,0,0,0,.09c0,.23-.07.45-.11.68l-.09.56c0,.22-.07.43-.11.65-.15.87-.3,1.67-.45,2.41-.07.32-.13.64-.19.93-.33,1.49-.62,2.62-.81,3.32-.33,1.23-1,3.59-2.09,6.64q-.17.47-.36,1c-.49,1.28-1,2.65-1.71,4.1-.16.36-.33.72-.51,1.09s-.4.83-.61,1.25c-.12.25-.25.51-.39.77s-.29.57-.45.86q-.45.85-1,1.74l-.47.82c-.53.9-1.1,1.82-1.7,2.73-.17.26-.34.52-.52.78l-.08.12h0q-.47.69-1,1.38l-.92,1.24c-.36.46-.72.93-1.1,1.39s-.51.64-.78,1a55.87,55.87,0,0,1-5.91,6l0,0q-1.09,1-2.28,1.89c-.5.4-1,.78-1.54,1.16s-.95.68-1.44,1l-.42.28c-.36.24-.73.48-1.11.71-.54.35-1.1.68-1.66,1-.25.15-.5.3-.76.43l-.07,0c-.42.24-.84.47-1.27.69-.65.34-1.31.66-2,1a52.22,52.22,0,0,1-5.93,2.31l-.84.27c-.57.18-1.18.36-1.81.53l-1,.26-1,.26c-.77.19-1.58.37-2.41.54l-1.54.28c-1.49.26-3.07.48-4.73.64l-1.29.11c-.6,0-1.21.08-1.83.1l-.76,0c-.86,0-1.73,0-2.61,0h0a51.91,51.91,0,0,1-16.9-3.11l-.07,0a51.48,51.48,0,0,1-12.63-6.77l0,0c-.59-.61-1.16-1.22-1.73-1.85a75.87,75.87,0,0,1-19.58-49.57c0-.57,0-1.15,0-1.72v-.26c0-.46,0-.92,0-1.38A75.94,75.94,0,0,1,73.33,75l.55-.57s0,0,0,0q2.55-1.22,5.13-2.21,1-.37,1.92-.72l.58-.2,1.33-.45c1-.32,2-.62,3-.89.57-.17,1.14-.32,1.7-.46l.12,0c.62-.16,1.24-.3,1.86-.44l.38-.08q.72-.16,1.44-.3l1-.2,1.47-.25.59-.09c.47-.07.94-.14,1.4-.19l.5-.07,1.49-.17.86-.08c.59,0,1.18-.1,1.77-.13s1.18-.07,1.78-.09l.78,0c1.8,0,3.6,0,5.38.08a61.53,61.53,0,0,1,52.66,40,61.73,61.73,0,0,1,1.77,9.34q.12,1.14.21,2.28A75.47,75.47,0,0,1,162.6,134.38Z" transform="translate(-51.82 -51.83)"/><path class="cls-2" d="M108.4,67.36c-1.78-.1-3.58-.12-5.38-.08l-.78,0c-.59,0-1.19,0-1.78.09s-1.18.08-1.77.13l-.86.08-1.49.17-.5.07c-.47.05-.93.12-1.4.19l-.59.09-1.47.25-1,.2q-.72.14-1.44.3l-.38.08-1.86.44-.12,0-1.7.46c-1,.27-2,.57-3,.89-.44.14-.89.29-1.33.45l-.58.2q-1,.34-1.92.72c.68-.29,1.37-.58,2.06-.84l0,0c.69-.27,1.39-.53,2.09-.77.51-.18,1-.35,1.53-.51L85,70l1-.3,1.13-.32q2.44-.67,5-1.14L93.2,68l1.14-.18c.77-.11,1.54-.21,2.31-.29.5-.06,1-.11,1.5-.14,1.72-.16,3.46-.23,5.21-.23S106.74,67.22,108.4,67.36Z" transform="translate(-51.82 -51.83)"/><path class="cls-2" d="M144.37,174.5a64.81,64.81,0,0,1-5.55,4.63q1.19-.93,2.28-1.89l0,0C142.24,176.36,143.32,175.45,144.37,174.5Z" transform="translate(-51.82 -51.83)"/><path class="cls-2" d="M165,147.74a109.68,109.68,0,0,1-8.25,12.41A135.42,135.42,0,0,0,165,147.74Z" transform="translate(-51.82 -51.83)"/><path class="cls-3" d="M120,188.55l1.81-.53C121.22,188.2,120.61,188.38,120,188.55Z" transform="translate(-51.82 -51.83)"/><path class="cls-3" d="M204.17,128v.55a76.15,76.15,0,0,1-73.08,75.55l-1.26.05c-.42,0-.85,0-1.28,0H127l-1,0h-.09l-1,0c-.49,0-1,0-1.46-.08l-.89-.07-.89-.08-1-.08c-.68-.07-1.34-.15-2-.25l-1.91-.26-1.75-.29c-1.53-.26-2.93-.54-4.19-.82l-1.21-.27-.64-.15c-.2,0-.4-.1-.6-.15l-.7-.18-.64-.17-.36-.1-.92-.26-.88-.27c-.85-.27-1.68-.55-2.5-.85l-.73-.26c-1.36-.5-2.67-1-3.94-1.58l-1.34-.6-1.09-.51c-1.07-.51-2.11-1-3.12-1.58q-2.91-1.56-5.43-3.21l-1.46-1-1.14-.79q-1.19-.84-2.28-1.68l-1.07-.83c-.7-.54-1.36-1.08-2-1.62-.32-.26-.63-.53-.92-.79-.55-.48-1.08-1-1.57-1.4s-1.13-1.05-1.64-1.54c-.32-.31-.63-.62-.91-.91A69.9,69.9,0,1,0,113.25,53.9c-1.09,0-2.17,0-3.25.08l.82-.2.4-.09,1.18-.26,1-.19c.46-.09.91-.18,1.35-.25s1-.18,1.5-.25q1.11-.18,2.16-.3c.42-.06.84-.11,1.27-.15l.3,0,1.86-.17,1.6-.11.35,0,.72,0,1.06-.05H128l2,0,1.54,0,.69,0,.78,0,1.55.11.93.09.87.09c.87.1,1.78.21,2.71.35l.94.14,1,.16,1,.17,2,.4q1.61.35,3.27.78c.51.12,1,.26,1.55.42l1,.3c.51.14,1,.3,1.55.47L153,56q.79.27,1.59.57l.09,0,1.67.65q.87.34,1.74.72A76.17,76.17,0,0,1,204.17,128Z" transform="translate(-51.82 -51.83)"/><path class="cls-3" d="M73.25,180.94l-.09-.09,0,0A.13.13,0,0,0,73.25,180.94Z" transform="translate(-51.82 -51.83)"/><path class="cls-3" d="M147.19,54.29q-1.66-.43-3.27-.78C145,53.74,146.08,54,147.19,54.29Z" transform="translate(-51.82 -51.83)"/><path class="cls-3" d="M95.35,196.82c-1.07-.5-2.11-1-3.14-1.58h0C93.24,195.78,94.28,196.31,95.35,196.82Z" transform="translate(-51.82 -51.83)"/><path class="cls-3" d="M108.45,201.6a91.82,91.82,0,0,0,13.24,2.27A73.12,73.12,0,0,1,108.45,201.6Z" transform="translate(-51.82 -51.83)"/><path class="cls-3" d="M123.47,204c-.6,0-1.19-.09-1.78-.15C122.29,203.92,122.87,204,123.47,204Z" transform="translate(-51.82 -51.83)"/><path class="cls-3" d="M107.75,201.42c.23.06.47.11.7.18Z" transform="translate(-51.82 -51.83)"/><circle class="cls-2" cx="53.65" cy="113.48" r="8.8"/><circle class="cls-2" cx="41.51" cy="78.73" r="5.56"/><path class="cls-2" d="M126.62,129.85a6.15,6.15,0,0,1-6.93-5.17,6.11,6.11,0,1,1,6.93,5.17Z" transform="translate(-51.82 -51.83)"/><circle class="cls-2" cx="62.45" cy="40.52" r="8.41"/><circle class="cls-2" cx="19.81" cy="59.87" r="3.65"/><path class="cls-2" d="M113.07,84a8.41,8.41,0,0,1,7.56,2.79,8.32,8.32,0,0,0-5.12-.86,8.43,8.43,0,0,0-7.12,9.55,8.24,8.24,0,0,0,2,4.3A8.41,8.41,0,0,1,113.07,84Z" transform="translate(-51.82 -51.83)"/><path class="cls-2" d="M71.08,108.1a3.63,3.63,0,0,1,3.27,1.21,3.64,3.64,0,0,0-5.3,3.76,3.57,3.57,0,0,0,.87,1.86,3.64,3.64,0,0,1,1.16-6.83Z" transform="translate(-51.82 -51.83)"/><path class="cls-2" d="M92.48,125.06a5.48,5.48,0,0,1,4.94,1.82,5.52,5.52,0,0,0-8,5.69,5.42,5.42,0,0,0,1.3,2.81,5.44,5.44,0,0,1-2.89-4.07A5.51,5.51,0,0,1,92.48,125.06Z" transform="translate(-51.82 -51.83)"/><path class="cls-2" d="M104.21,156.6a8.85,8.85,0,0,1,7.92,2.93,8.83,8.83,0,0,0-12.82,9.1,8.58,8.58,0,0,0,2.09,4.5,8.7,8.7,0,0,1-4.63-6.52A8.82,8.82,0,0,1,104.21,156.6Z" transform="translate(-51.82 -51.83)"/><path class="cls-3" d="M150.82,167.79a59.27,59.27,0,0,1-6.45,6.71A80,80,0,0,0,150.82,167.79Z" transform="translate(-51.82 -51.83)"/><path class="cls-2" d="M183.15,123.8A69.9,69.9,0,0,1,73.82,181.51c-.18-.17-.34-.34-.5-.5l-.07-.07a.13.13,0,0,1-.06-.07,51.48,51.48,0,0,0,12.63,6.77l.07,0a51.91,51.91,0,0,0,16.9,3.11h0c.88,0,1.75,0,2.61,0l.76,0c.62,0,1.23-.06,1.83-.1l1.29-.11c1.66-.16,3.24-.38,4.73-.64l1.54-.28c.83-.17,1.64-.35,2.41-.54l1-.26,1-.26c.63-.17,1.24-.35,1.81-.53l.84-.27a52.22,52.22,0,0,0,5.93-2.31c.68-.32,1.34-.64,2-1,.43-.22.85-.45,1.27-.69l.07,0c.26-.13.51-.28.76-.43.56-.32,1.12-.65,1.66-1,.38-.23.75-.47,1.11-.71l.42-.28c.49-.34,1-.67,1.44-1s1-.76,1.54-1.16a64.81,64.81,0,0,0,5.55-4.63c-1.05.95-2.13,1.86-3.25,2.72a55.87,55.87,0,0,0,5.91-6c.27-.31.53-.63.78-1s.74-.93,1.1-1.39l.92-1.24q.49-.69,1-1.38h0l.08-.12c.18-.26.35-.52.52-.78.6-.91,1.17-1.83,1.7-2.73l.47-.82q.51-.88,1-1.74c.16-.29.31-.58.45-.86s.27-.52.39-.77c.21-.42.42-.84.61-1.25s.35-.73.51-1.09c.66-1.45,1.22-2.82,1.71-4.1q.2-.49.36-1c1.12-3.05,1.76-5.41,2.09-6.64.19-.7.48-1.83.81-3.32.06-.29.12-.61.19-.93.15-.74.3-1.54.45-2.41,0-.22.07-.43.11-.65l.09-.56c0-.23.07-.45.11-.68a.28.28,0,0,1,0-.09c.06-.43.12-.88.18-1.33a75.47,75.47,0,0,0,.44-15.44q-.09-1.14-.21-2.28a61.73,61.73,0,0,0-1.77-9.34,61.53,61.53,0,0,0-52.66-40q-2.49-.21-5-.21c-1.75,0-3.49.07-5.21.23-.5,0-1,.08-1.5.14-.77.08-1.54.18-2.31.29q-.57.07-1.14.18l-1.14.2q-2.53.47-5,1.14L86,69.65,85,70l-.18.06q-.77.24-1.53.51c-.7.24-1.4.5-2.09.77l0,0c-.69.27-1.38.55-2.06.84q-2.58,1-5.13,2.21c.7-.7,1.48-1.47,2.36-2.27l.74-.68.16-.14c.3-.27.61-.55.94-.83l.22-.2,1.22-1c.42-.35.86-.71,1.32-1.07L81,68l.68-.52a74.86,74.86,0,0,1,8.79-5.82c.68-.39,1.36-.76,2-1.12q1.52-.81,3.15-1.56a.34.34,0,0,1,.12-.06c.26-.13.54-.25.81-.37,1.25-.58,2.55-1.12,3.89-1.64l.75-.28c1-.38,2-.72,3-1l1.19-.38c.77-.24,1.53-.46,2.28-.67.47-.13.94-.26,1.42-.37l.41-.11L110,54c1.08-.06,2.16-.08,3.25-.08A69.9,69.9,0,0,1,183.15,123.8Z" transform="translate(-51.82 -51.83)"/><circle class="cls-2" cx="21.34" cy="102.88" r="3.77"/><path class="cls-2" d="M72.58,151a3.7,3.7,0,0,1,3.35,1.24,3.73,3.73,0,0,0-5.42,3.85,3.68,3.68,0,0,0,.88,1.9,3.73,3.73,0,0,1,1.19-7Z" transform="translate(-51.82 -51.83)"/><circle class="cls-2" cx="85.29" cy="97.23" r="3.77"/><path class="cls-2" d="M136.53,145.33a3.75,3.75,0,0,1,3.35,1.24,3.74,3.74,0,0,0-5.42,3.85,3.67,3.67,0,0,0,.88,1.91,3.73,3.73,0,0,1,1.19-7Z" transform="translate(-51.82 -51.83)"/><circle class="cls-2" cx="92.82" cy="48.56" r="3.77"/><path class="cls-2" d="M144.07,96.66a3.74,3.74,0,0,1,3.35,1.24,3.74,3.74,0,0,0-5.43,3.85,3.58,3.58,0,0,0,.89,1.9,3.66,3.66,0,0,1-2-2.75A3.74,3.74,0,0,1,144.07,96.66Z" transform="translate(-51.82 -51.83)"/><path class="cls-4" d="M165.27,61.65a78.84,78.84,0,0,0-16-4.17,79.85,79.85,0,0,0-12-.89h-.78q-2.35,0-4.68.18A78.91,78.91,0,0,0,96.89,67.61l-.48.28-1.17.71c-.77.49-1.53,1-2.29,1.5a79.35,79.35,0,0,0-34,52.83c-.26,1.58-.49,3.2-.65,4.81h0a80,80,0,0,0-.42,8.24,79.05,79.05,0,0,0,9.9,38.43c-.49-.63-1-1.25-1.47-1.89a75.63,75.63,0,0,1-9.68-18l-.06-.15a75.8,75.8,0,0,1-4.73-24.51c0-.57,0-1.15,0-1.73v-.26c0-.46,0-.92,0-1.39q0-3,.34-5.91a76,76,0,0,1,72.6-68.67c.38,0,.78,0,1.16,0h2.2l1,0c1.5,0,2.94.12,4.33.22l1.14.1,1,.1.77.09c1.5.18,2.91.37,4.23.6l1.13.19c.82.13,1.59.28,2.3.43l.82.18h0l.25.06,1.51.36.8.21,1.73.48h0c.72.22,1.42.43,2.11.66s1.39.45,2.09.71c1.35.48,2.68,1,4,1.55l.17.08.23.1h0c.48.2,1,.41,1.42.63l.24.11.33.15c.36.16.74.33,1.1.52l.34.16.62.31.72.38a.37.37,0,0,1,.14.07c.41.2.79.4,1.18.61l.55.3Z" transform="translate(-51.82 -51.83)"/><path class="cls-5" d="M90.73,194.26a78.86,78.86,0,0,0,16,4.18,79.85,79.85,0,0,0,11.95.89h.78q2.36,0,4.68-.18a79.17,79.17,0,0,0,34.94-10.84l.48-.28q.58-.34,1.17-.72c.77-.48,1.53-1,2.29-1.49a79.37,79.37,0,0,0,34-52.84c.26-1.58.49-3.19.65-4.8h0a80,80,0,0,0,.42-8.24,79,79,0,0,0-9.9-38.43c.49.62,1,1.25,1.47,1.89a75.44,75.44,0,0,1,9.68,18l.06.15a75.74,75.74,0,0,1,4.73,24.5c0,.58,0,1.16,0,1.73v.27c0,.46,0,.92,0,1.38,0,2-.14,4-.34,5.92A76,76,0,0,1,131.22,204c-.38,0-.78,0-1.16,0h-2.2l-1,0c-1.5,0-2.94-.12-4.33-.22l-1.14-.11-1-.1-.77-.09c-1.5-.18-2.91-.37-4.23-.59l-1.13-.19c-.82-.13-1.59-.28-2.3-.43l-.82-.18h0l-.25-.06-1.51-.37-.8-.21-1.73-.47h0c-.72-.22-1.42-.43-2.11-.66s-1.39-.46-2.09-.72c-1.35-.47-2.68-1-4-1.55l-.17-.08-.23-.1h0c-.48-.19-1-.4-1.42-.62l-.24-.11-.33-.15c-.36-.16-.74-.33-1.1-.53l-.34-.16-.62-.31c-.24-.12-.49-.24-.72-.37a.37.37,0,0,1-.14-.07c-.41-.2-.79-.4-1.18-.61a5.67,5.67,0,0,1-.55-.31Z" transform="translate(-51.82 -51.83)"/></svg>