<svg id="Layer_1" data-name="Layer 1" xmlns="http://www.w3.org/2000/svg" viewBox="0 0 151.69 151.63"><defs><style>.cls-1{fill:#bf702a;}.cls-2{fill:#f2c777;}.cls-3{fill:#f29f05;}.cls-4{fill:#d99441;}.cls-5{fill:none;}.cls-6{fill:#fff;}.cls-6,.cls-7{opacity:0.2;}</style></defs><title>VenusIcon</title><path class="cls-1" d="M199,101.42c-4.52,1.15-9.73,2.75-15.67,4.78-2.47.88-4.95,1.72-7.43,2.42l-1.15.18h0a4.26,4.26,0,0,1-3.28-1.64,29.47,29.47,0,0,0-20.24-10.72c-.86-.07-1.73-.11-2.61-.11a29.64,29.64,0,0,0-23.21,11.2,29,29,0,0,0-3.9,6.44,5.65,5.65,0,0,1-.31.6,2.24,2.24,0,0,1-.27.41,3.37,3.37,0,0,1-.43.55,4.78,4.78,0,0,1-.49.51c-.1.09-.24.21-.35.29a1.88,1.88,0,0,1-.24.18,2.91,2.91,0,0,1-.39.25,2.81,2.81,0,0,1-.54.29l-.59.24,0,0a2.54,2.54,0,0,1-.51.17,5.8,5.8,0,0,1-.66.16l-.21,0a5.76,5.76,0,0,1-.82.06h-.59c-1.66,0-3.32,0-4.94,0l-2.14-.06c-1.7,0-3.36-.1-5-.18-1.13-.06-2.24-.11-3.35-.19-1.68-.12-3.34-.26-5-.39-.86-.06-1.72-.16-2.58-.24-4.74-.49-9.23-1.09-13.4-1.77a202.78,202.78,0,0,1-24.18-5.47,42,42,0,0,1,2-6.5c.31-.91.64-1.81,1-2.71s.84-2,1.29-3.06c.33-.76.66-1.5,1-2.23.84-1.73,1.73-3.41,2.69-5s2-3.26,3-4.8c.53-.78,1.08-1.54,1.64-2.3a.61.61,0,0,0,.1-.14A75.92,75.92,0,0,1,128,52.19a74.63,74.63,0,0,1,32.84,7.49h.06c1.09.53,2.17,1.07,3.22,1.66s2,1.13,3,1.73,2.12,1.31,3.14,2c2,1.33,3.9,2.78,5.74,4.28.62.51,1.21,1,1.81,1.54h0c1.23,1.07,2.44,2.17,3.57,3.32a6.07,6.07,0,0,1,.51.5c.68.67,1.35,1.37,2,2.07A77.87,77.87,0,0,1,193.62,90c1.07,1.84,2,3.71,3,5.64S198.28,99.47,199,101.42Z" transform="translate(-52.16 -52.19)"/><path class="cls-2" d="M186.29,176.45a75.22,75.22,0,0,1-50.46,26.91C152.05,187.52,172.35,180,186.29,176.45Z" transform="translate(-52.16 -52.19)"/><path class="cls-1" d="M202.83,140.37a65.16,65.16,0,0,1-2.93,11.77c-1,.39-1.91.76-2.93,1.21-54.71,23.42-101.49,22-132.6,15.85a72.81,72.81,0,0,1-4.17-7.28l-2.89-6.46c-.43-1.1-.84-2.21-1.21-3.32,6.61-1.07,18.26-2.11,34.42,0l.41.06,18.95,2.42C127.23,156.2,148.54,154.75,202.83,140.37Z" transform="translate(-52.16 -52.19)"/><path class="cls-3" d="M199.9,152.14c-.51,1.6-1.15,3.18-1.77,4.7a54,54,0,0,1-3.18,6.75c-.77,1.53-1.6,3-2.48,4.4-.71,1.07-1.41,2.16-2.17,3.18-.58.89-1.21,1.71-1.85,2.53s-1.41,1.86-2.17,2.76c-13.93,3.49-34.23,11.06-50.44,26.91h-.4a19.42,19.42,0,0,1-2.61.25c-1.58.14-3.18.19-4.84.19a75.47,75.47,0,0,1-32.69-7.39A76.7,76.7,0,0,1,64.37,169.2c31.11,6.1,77.89,7.57,132.6-15.85C198,152.9,199,152.53,199.9,152.14Z" transform="translate(-52.16 -52.19)"/><path class="cls-4" d="M183.94,76.79c-30.48,13.12-93,36.73-127.45,26.09h0c.31-.91.66-1.81,1-2.71s.82-2.07,1.27-3.06c.33-.76.68-1.5,1-2.23.84-1.73,1.73-3.41,2.69-5s2-3.26,3-4.8c.53-.78,1.08-1.54,1.64-2.3h.2c20.7-.67,57-4.84,93.47-23.05h.06c1.09.53,2.17,1.07,3.22,1.66s2,1.13,3,1.73,2.12,1.31,3.14,2A69.49,69.49,0,0,1,176,69.36c.62.51,1.21,1,1.81,1.54h0c1.23,1.07,2.44,2.17,3.57,3.32a6.07,6.07,0,0,1,.51.5C182.63,75.39,183.3,76.09,183.94,76.79Z" transform="translate(-52.16 -52.19)"/><path class="cls-2" d="M203.84,128.37c0,.63,0,1.23-.05,1.87,0,1-.06,1.94-.14,2.87l-.06.65-.06,1.23c0,.21,0,.45-.06.66-.06.51-.11,1-.19,1.54-.14,1.07-.26,2.17-.45,3.18-54.29,14.38-75.6,15.83-93,14.25L90.93,152.2l-.41-.06c-16.16-2.11-27.81-1.07-34.42,0A66.8,66.8,0,0,1,54,144.63c-.21-.94-.41-1.9-.59-2.85l-.05-.3a55.14,55.14,0,0,1-.77-5.5c-.19-1.34-.25-2.61-.33-3.94,0-.22,0-.43,0-.62-.07-1.14-.07-2.27-.07-3.4,0-1.29,0-2.56.09-3.81.12-2.22.34-4.43.63-6.59.1-.7.21-1.39.33-2.09.33-2.07.78-4.14,1.31-6.15a202.78,202.78,0,0,0,24.18,5.47c4.17.68,8.66,1.28,13.4,1.77.86.08,1.72.18,2.58.24,1.62.15,3.28.27,5,.39,1.11.08,2.22.13,3.35.19,1.64.08,3.3.14,5,.18l2.14.06c1.62,0,3.28.06,4.94,0h.59a5.76,5.76,0,0,0,.82-.06l.21,0a5.8,5.8,0,0,0,.66-.16,2.54,2.54,0,0,0,.51-.17l0,0a1.84,1.84,0,0,0,.59-.24,2.81,2.81,0,0,0,.54-.29,2.91,2.91,0,0,0,.39-.25,1.88,1.88,0,0,0,.24-.18c.11-.08.25-.2.35-.29a4.78,4.78,0,0,0,.49-.51,3.37,3.37,0,0,0,.43-.55,2.24,2.24,0,0,0,.27-.41,5.65,5.65,0,0,0,.31-.6,29,29,0,0,1,3.9-6.44,29.64,29.64,0,0,1,23.21-11.2c.88,0,1.75,0,2.61.11a29.47,29.47,0,0,1,20.24,10.72,4.26,4.26,0,0,0,3.28,1.64h0a3.83,3.83,0,0,0,1.15-.18c2.48-.7,5-1.54,7.43-2.42,5.94-2,11.15-3.63,15.67-4.78a78.93,78.93,0,0,1,2.95,9.82c0,.11.06.23.08.35a71.47,71.47,0,0,1,1.42,9.19c.06.45.1.9.14,1.37Z" transform="translate(-52.16 -52.19)"/><path class="cls-4" d="M199.9,152.14c-.51,1.6-1.15,3.18-1.77,4.7a54,54,0,0,1-3.18,6.75c-.77,1.53-1.6,3-2.48,4.4-.71,1.07-1.41,2.16-2.17,3.18-.58.89-1.21,1.71-1.85,2.53s-1.41,1.86-2.17,2.76c-13.93,3.49-34.23,11.06-50.44,26.91h-.4a19.42,19.42,0,0,1-2.61.25c-1.58.12-3.18.19-4.84.19a75.47,75.47,0,0,1-32.69-7.39A76.7,76.7,0,0,1,64.37,169.2c31.11,6.1,77.89,7.57,132.6-15.85C198,152.9,199,152.53,199.9,152.14Z" transform="translate(-52.16 -52.19)"/><line class="cls-5" x1="8.04" y1="109.73" x2="5.15" y2="103.27"/><line class="cls-5" x1="62.92" y1="65.53" x2="123.76" y2="56.44"/><circle class="cls-1" cx="96.53" cy="71.06" r="20.68"/><path class="cls-1" d="M92.88,129.7a124.16,124.16,0,0,1-39.13,11.74.42.42,0,0,1-.46-.34c-.31-1.69-.52-3.38-.69-5.12-.19-1.34-.25-2.61-.33-3.94,0-.22,0-.43,0-.62-.07-1.14-.07-2.27-.07-3.4,0-1.29,0-2.56.09-3.81.11-2,.3-4,.55-6a.4.4,0,0,1,.58-.32c8.29,4.12,24.72,11.23,39.31,11A.41.41,0,0,1,92.88,129.7Z" transform="translate(-52.16 -52.19)"/><path class="cls-1" d="M203.84,128.37c0,.63,0,1.23-.05,1.87,0,1-.06,1.94-.14,2.87l-.06.65-.06,1.23c0,.21,0,.45-.06.66a58,58,0,0,1-13.36.13,2.3,2.3,0,0,1-1.08-4.16c4.17-3,10-7.36,14.53-10.9Z" transform="translate(-52.16 -52.19)"/><path class="cls-1" d="M177.12,71.33c-4.22,2.41-11.56,5-24.31,6.49a.61.61,0,0,1-.53-1c3.84-4.23,7.13-12.87,8.59-17.12h0c1.09.53,2.17,1.07,3.22,1.66s2,1.13,3,1.73,2.12,1.31,3.14,2a69.93,69.93,0,0,1,6.91,5.26A.62.62,0,0,1,177.12,71.33Z" transform="translate(-52.16 -52.19)"/><path class="cls-1" d="M100.13,87.89a1.47,1.47,0,0,1,.35,2.9,358,358,0,0,1-41.71,6.32s0,0,0,0c.33-.76.68-1.5,1-2.23.84-1.73,1.73-3.41,2.69-5s2-3.26,3-4.8c.53-.78,1.08-1.54,1.64-2.3a.61.61,0,0,0,.1-.14.32.32,0,0,0,.08.14h0C69.23,85.22,76.09,88.75,100.13,87.89Z" transform="translate(-52.16 -52.19)"/><path class="cls-1" d="M106,179.65a37.9,37.9,0,0,0-10.41,15.83.87.87,0,0,1-1.2.5,76,76,0,0,1-16.79-11.37.87.87,0,0,1,.27-1.46c4.51-1.63,12.8-3.73,27.47-5A.85.85,0,0,1,106,179.65Z" transform="translate(-52.16 -52.19)"/><circle class="cls-2" cx="89.07" cy="71.57" r="17.69"/><path class="cls-6" d="M165.11,62a77.53,77.53,0,0,0-16-4.16,79.18,79.18,0,0,0-11.9-.89h-.77c-1.57,0-3.13.08-4.67.18A78.71,78.71,0,0,0,97,68l-.48.28-1.16.71c-.77.49-1.53,1-2.29,1.5A79,79,0,0,0,59.25,123c-.26,1.57-.49,3.18-.65,4.78h0A79.37,79.37,0,0,0,68,174.3c-.49-.62-1-1.24-1.46-1.88a75.52,75.52,0,0,1-9.64-17.93l-.06-.15a75.38,75.38,0,0,1-4.7-24.4c0-.57,0-1.15,0-1.73V128c0-.46,0-.92,0-1.38q0-3,.33-5.88a75.7,75.7,0,0,1,72.28-68.38c.38,0,.78,0,1.16,0h2.19l1,0c1.49,0,2.92.13,4.3.23l1.14.1,1,.1.78.09c1.49.18,2.89.37,4.2.59l1.13.19c.81.13,1.58.28,2.29.43l.82.18h0l.25.06,1.5.36.8.21,1.72.47h0c.71.22,1.41.43,2.1.66s1.38.45,2.08.71c1.35.47,2.67,1,4,1.54l.17.08.23.1h0c.48.19.94.4,1.41.62l.24.11.33.15c.36.16.73.33,1.09.52l.34.16.63.31c.24.12.48.24.71.37a.37.37,0,0,1,.14.07l1.18.62.54.3Z" transform="translate(-52.16 -52.19)"/><path class="cls-7" d="M90.89,194a77.53,77.53,0,0,0,16,4.16,79.18,79.18,0,0,0,11.9.89h.77c1.57,0,3.13-.08,4.67-.18A78.71,78.71,0,0,0,159,188.05l.48-.28,1.16-.71c.77-.49,1.53-1,2.29-1.5A79,79,0,0,0,196.75,133c.26-1.57.49-3.18.65-4.78h0A79.37,79.37,0,0,0,188,81.7c.49.62,1,1.24,1.46,1.88a75.52,75.52,0,0,1,9.64,17.93l.06.15a75.38,75.38,0,0,1,4.7,24.4c0,.57,0,1.15,0,1.73v.26c0,.46,0,.92,0,1.38q0,3-.33,5.88a75.7,75.7,0,0,1-72.28,68.38c-.38,0-.78,0-1.16,0h-2.19l-1,0c-1.49,0-2.92-.13-4.3-.23l-1.14-.1-1-.1-.78-.09c-1.49-.18-2.89-.37-4.2-.59l-1.13-.19c-.81-.13-1.58-.28-2.29-.43l-.82-.18h0l-.25-.06-1.5-.36-.8-.21-1.72-.47h0c-.71-.22-1.41-.43-2.1-.66s-1.38-.45-2.08-.71c-1.35-.47-2.67-1-4-1.54l-.17-.08-.23-.1h0c-.48-.19-.94-.4-1.41-.62l-.24-.11-.33-.15c-.36-.16-.73-.33-1.09-.52l-.34-.16-.63-.31c-.24-.12-.48-.24-.71-.37a.37.37,0,0,1-.14-.07l-1.18-.62-.54-.3Z" transform="translate(-52.16 -52.19)"/></svg>